<?xml version="1.0"?>
<!-- Generated by SVGo -->
<svg width="302.227mm" height="193.252mm"
     viewBox="0.000 0.000 302.227 193.252"
     xmlns="http://www.w3.org/2000/svg" 
     xmlns:xlink="http://www.w3.org/1999/xlink">
<polygon points="146.114,5.000 146.114,7.126 149.614,7.126 149.614,10.126 146.114,10.126 146.114,12.999 12.999,12.999 12.999,32.052 13.000,32.052 13.000,51.100 12.999,51.100 12.999,70.152 13.000,70.152 13.000,89.202 67.673,89.202 67.673,108.251 234.363,108.251 234.363,89.202 289.227,89.202 289.227,12.999 156.114,12.999 156.114,10.126 152.614,10.126 152.614,7.126 156.114,7.126 156.114,5.001 294.227,5.001 294.462,5.010 294.696,5.037 294.927,5.083 295.154,5.147 295.375,5.229 295.588,5.327 295.794,5.443 295.990,5.573 296.175,5.719 296.348,5.879 296.508,6.052 296.654,6.237 296.784,6.433 296.900,6.639 296.998,6.852 297.080,7.073 297.144,7.300 297.190,7.531 297.217,7.765 297.227,8.001 297.227,185.251 297.217,185.487 297.190,185.721 297.144,185.952 297.080,186.179 296.998,186.400 296.900,186.613 296.784,186.819 296.654,187.015 296.508,187.200 296.348,187.373 296.175,187.533 295.990,187.679 295.794,187.809 295.588,187.925 295.375,188.023 295.154,188.105 294.927,188.169 294.696,188.215 294.462,188.242 294.227,188.252 8.001,188.251 7.765,188.242 7.531,188.215 7.300,188.169 7.073,188.105 6.852,188.023 6.639,187.925 6.433,187.809 6.237,187.679 6.052,187.533 5.879,187.373 5.719,187.200 5.573,187.015 5.443,186.819 5.327,186.613 5.229,186.400 5.147,186.179 5.083,185.952 5.037,185.721 5.010,185.487 5.000,185.251 5.001,8.001 5.010,7.765 5.037,7.531 5.083,7.300 5.147,7.073 5.229,6.852 5.327,6.639 5.443,6.433 5.573,6.237 5.719,6.052 5.879,5.879 6.052,5.719 6.237,5.573 6.433,5.443 6.639,5.327 6.852,5.229 7.073,5.147 7.300,5.083 7.531,5.037 7.765,5.010 8.001,5.000" style="fill:none;stroke-width:0.050000mm;stroke:black"/>
<polygon points="292.763,182.825 292.345,183.038 292.013,183.370 291.800,183.788 291.727,184.252 291.800,184.715 292.013,185.133 292.345,185.465 292.763,185.678 293.227,185.752 293.690,185.678 294.108,185.465 294.440,185.133 294.653,184.715 294.727,184.252 294.653,183.788 294.440,183.370 294.108,183.038 293.690,182.825 293.227,182.751" style="fill:none;stroke-width:0.050000mm;stroke:black"/>
<polygon points="198.021,182.825 197.603,183.038 197.271,183.370 197.058,183.788 196.985,184.252 197.058,184.715 197.271,185.133 197.603,185.465 198.021,185.678 198.485,185.752 198.948,185.678 199.366,185.465 199.698,185.133 199.911,184.715 199.985,184.252 199.911,183.788 199.698,183.370 199.366,183.038 198.948,182.825 198.485,182.751" style="fill:none;stroke-width:0.050000mm;stroke:black"/>
<polygon points="103.279,182.825 102.861,183.038 102.529,183.370 102.316,183.788 102.243,184.252 102.316,184.715 102.529,185.133 102.861,185.465 103.279,185.678 103.743,185.752 104.206,185.678 104.624,185.465 104.956,185.133 105.169,184.715 105.243,184.252 105.169,183.788 104.956,183.370 104.624,183.038 104.206,182.825 103.743,182.751" style="fill:none;stroke-width:0.050000mm;stroke:black"/>
<polygon points="8.537,182.825 8.119,183.038 7.787,183.370 7.574,183.788 7.501,184.252 7.574,184.715 7.787,185.133 8.119,185.465 8.537,185.678 9.001,185.752 9.464,185.678 9.882,185.465 10.214,185.133 10.427,184.715 10.501,184.252 10.427,183.788 10.214,183.370 9.882,183.038 9.464,182.825 9.001,182.751" style="fill:none;stroke-width:0.050000mm;stroke:black"/>
<polygon points="13.114,120.876 13.114,180.376 48.114,180.376 48.114,120.876" style="fill:none;stroke-width:0.050000mm;stroke:black"/>
<polygon points="53.614,120.876 53.614,180.376 88.614,180.376 88.614,120.876" style="fill:none;stroke-width:0.050000mm;stroke:black"/>
<polygon points="213.614,120.876 213.614,180.376 248.614,180.376 248.614,120.876" style="fill:none;stroke-width:0.050000mm;stroke:black"/>
<polygon points="254.114,120.876 254.114,180.376 289.114,180.376 289.114,120.876" style="fill:none;stroke-width:0.050000mm;stroke:black"/>
<polygon points="93.614,120.876 93.614,180.376 208.614,180.376 208.614,120.876" style="fill:none;stroke-width:0.050000mm;stroke:black"/>
<polygon points="103.996,113.131 103.879,113.144 103.763,113.167 103.650,113.199 103.539,113.240 103.433,113.289 103.330,113.347 103.232,113.412 103.139,113.485 103.053,113.565 102.973,113.652 102.900,113.744 102.835,113.842 102.777,113.945 102.728,114.052 102.687,114.162 102.655,114.276 102.632,114.391 102.618,114.508 102.614,114.626 102.618,114.744 102.632,114.861 102.655,114.976 102.687,115.090 102.728,115.200 102.777,115.307 102.835,115.410 102.900,115.508 102.973,115.600 103.053,115.687 103.139,115.767 103.232,115.840 103.330,115.905 103.433,115.963 103.539,116.012 103.650,116.053 103.763,116.085 103.879,116.108 103.996,116.121 104.114,116.126 104.231,116.121 104.348,116.108 104.464,116.085 104.577,116.053 104.688,116.012 104.794,115.963 104.897,115.905 104.995,115.840 105.088,115.767 105.174,115.687 105.254,115.600 105.327,115.508 105.392,115.410 105.450,115.307 105.499,115.200 105.540,115.090 105.572,114.976 105.595,114.861 105.609,114.744 105.614,114.626 105.609,114.508 105.595,114.391 105.572,114.276 105.540,114.162 105.499,114.052 105.450,113.945 105.392,113.842 105.327,113.744 105.254,113.652 105.174,113.565 105.088,113.485 104.995,113.412 104.897,113.347 104.794,113.289 104.688,113.240 104.577,113.199 104.464,113.167 104.348,113.144 104.231,113.131 104.114,113.126" style="fill:none;stroke-width:0.050000mm;stroke:black"/>
<polygon points="197.996,113.131 197.879,113.144 197.763,113.167 197.650,113.199 197.539,113.240 197.433,113.289 197.330,113.347 197.232,113.412 197.139,113.485 197.053,113.565 196.973,113.652 196.900,113.744 196.835,113.842 196.777,113.945 196.728,114.052 196.687,114.162 196.655,114.276 196.632,114.391 196.618,114.508 196.614,114.626 196.618,114.744 196.632,114.861 196.655,114.976 196.687,115.090 196.728,115.200 196.777,115.307 196.835,115.410 196.900,115.508 196.973,115.600 197.053,115.687 197.139,115.767 197.232,115.840 197.330,115.905 197.433,115.963 197.539,116.012 197.650,116.053 197.763,116.085 197.879,116.108 197.996,116.121 198.114,116.126 198.231,116.121 198.348,116.108 198.464,116.085 198.577,116.053 198.688,116.012 198.794,115.963 198.897,115.905 198.995,115.840 199.088,115.767 199.174,115.687 199.254,115.600 199.327,115.508 199.392,115.410 199.450,115.307 199.499,115.200 199.540,115.090 199.572,114.976 199.595,114.861 199.609,114.744 199.614,114.626 199.609,114.508 199.595,114.391 199.572,114.276 199.540,114.162 199.499,114.052 199.450,113.945 199.392,113.842 199.327,113.744 199.254,113.652 199.174,113.565 199.088,113.485 198.995,113.412 198.897,113.347 198.794,113.289 198.688,113.240 198.577,113.199 198.464,113.167 198.348,113.144 198.231,113.131 198.114,113.126" style="fill:none;stroke-width:0.050000mm;stroke:black"/>
<polygon points="292.763,95.199 292.345,95.412 292.013,95.744 291.800,96.162 291.727,96.626 291.800,97.090 292.013,97.508 292.345,97.840 292.763,98.053 293.227,98.126 293.690,98.053 294.108,97.840 294.440,97.508 294.653,97.090 294.727,96.626 294.653,96.162 294.440,95.744 294.108,95.412 293.690,95.199 293.227,95.126" style="fill:none;stroke-width:0.050000mm;stroke:black"/>
<polygon points="8.537,95.199 8.119,95.412 7.787,95.744 7.574,96.162 7.501,96.626 7.574,97.090 7.787,97.508 8.119,97.840 8.537,98.053 9.001,98.126 9.464,98.053 9.882,97.840 10.214,97.508 10.427,97.090 10.501,96.626 10.427,96.162 10.214,95.744 9.882,95.412 9.464,95.199 9.001,95.126" style="fill:none;stroke-width:0.050000mm;stroke:black"/>
<polygon points="103.279,7.574 102.861,7.787 102.529,8.119 102.316,8.537 102.243,9.001 102.316,9.464 102.529,9.882 102.861,10.214 103.279,10.427 103.743,10.501 104.206,10.427 104.624,10.214 104.956,9.882 105.169,9.464 105.243,9.001 105.169,8.537 104.956,8.119 104.624,7.787 104.206,7.574 103.743,7.501" style="fill:none;stroke-width:0.050000mm;stroke:black"/>
<polygon points="198.021,7.574 197.603,7.787 197.271,8.119 197.058,8.537 196.985,9.001 197.058,9.464 197.271,9.882 197.603,10.214 198.021,10.427 198.485,10.501 198.948,10.427 199.366,10.214 199.698,9.882 199.911,9.464 199.985,9.001 199.911,8.537 199.698,8.119 199.366,7.787 198.948,7.574 198.485,7.501" style="fill:none;stroke-width:0.050000mm;stroke:black"/>
<polygon points="292.763,7.574 292.345,7.787 292.013,8.119 291.800,8.537 291.727,9.001 291.800,9.464 292.013,9.882 292.345,10.214 292.763,10.427 293.227,10.501 293.690,10.427 294.108,10.214 294.440,9.882 294.653,9.464 294.727,9.001 294.653,8.537 294.440,8.119 294.108,7.787 293.690,7.574 293.227,7.501" style="fill:none;stroke-width:0.050000mm;stroke:black"/>
<polygon points="8.537,7.574 8.119,7.787 7.787,8.119 7.574,8.537 7.501,9.001 7.574,9.464 7.787,9.882 8.119,10.214 8.537,10.427 9.001,10.501 9.464,10.427 9.882,10.214 10.214,9.882 10.427,9.464 10.501,9.001 10.427,8.537 10.214,8.119 9.882,7.787 9.464,7.574 9.001,7.501" style="fill:none;stroke-width:0.050000mm;stroke:black"/>
</svg>
