<?xml version="1.0"?>
<!-- Generated by SVGo -->
<svg width="302.227mm" height="193.252mm"
     viewBox="0.000 0.000 302.227 193.252"
     xmlns="http://www.w3.org/2000/svg" 
     xmlns:xlink="http://www.w3.org/1999/xlink">
<polygon points="294.227,5.001 294.462,5.010 294.696,5.037 294.927,5.083 295.154,5.147 295.375,5.229 295.588,5.327 295.794,5.443 295.990,5.573 296.175,5.719 296.348,5.879 296.508,6.052 296.654,6.237 296.784,6.433 296.900,6.639 296.998,6.852 297.080,7.073 297.144,7.300 297.190,7.531 297.217,7.765 297.227,8.001 297.227,185.251 297.217,185.487 297.190,185.721 297.144,185.952 297.080,186.179 296.998,186.400 296.900,186.613 296.784,186.819 296.654,187.015 296.508,187.200 296.348,187.373 296.175,187.533 295.990,187.679 295.794,187.809 295.588,187.925 295.375,188.023 295.154,188.105 294.927,188.169 294.696,188.215 294.462,188.242 294.227,188.252 8.001,188.251 7.765,188.242 7.531,188.215 7.300,188.169 7.073,188.105 6.852,188.023 6.639,187.925 6.433,187.809 6.237,187.679 6.052,187.533 5.879,187.373 5.719,187.200 5.573,187.015 5.443,186.819 5.327,186.613 5.229,186.400 5.147,186.179 5.083,185.952 5.037,185.721 5.010,185.487 5.000,185.251 5.001,8.001 5.010,7.765 5.037,7.531 5.083,7.300 5.147,7.073 5.229,6.852 5.327,6.639 5.443,6.433 5.573,6.237 5.719,6.052 5.879,5.879 6.052,5.719 6.237,5.573 6.433,5.443 6.639,5.327 6.852,5.229 7.073,5.147 7.300,5.083 7.531,5.037 7.765,5.010 8.001,5.000" style="fill:none;stroke-width:0.050000mm;stroke:black"/>
<polygon points="292.763,182.825 292.345,183.038 292.013,183.370 291.800,183.788 291.727,184.252 291.800,184.715 292.013,185.133 292.345,185.465 292.763,185.678 293.227,185.752 293.690,185.678 294.108,185.465 294.440,185.133 294.653,184.715 294.727,184.252 294.653,183.788 294.440,183.370 294.108,183.038 293.690,182.825 293.227,182.751" style="fill:none;stroke-width:0.050000mm;stroke:black"/>
<polygon points="198.021,182.825 197.603,183.038 197.271,183.370 197.058,183.788 196.985,184.252 197.058,184.715 197.271,185.133 197.603,185.465 198.021,185.678 198.485,185.752 198.948,185.678 199.366,185.465 199.698,185.133 199.911,184.715 199.985,184.252 199.911,183.788 199.698,183.370 199.366,183.038 198.948,182.825 198.485,182.751" style="fill:none;stroke-width:0.050000mm;stroke:black"/>
<polygon points="103.279,182.825 102.861,183.038 102.529,183.370 102.316,183.788 102.243,184.252 102.316,184.715 102.529,185.133 102.861,185.465 103.279,185.678 103.743,185.752 104.206,185.678 104.624,185.465 104.956,185.133 105.169,184.715 105.243,184.252 105.169,183.788 104.956,183.370 104.624,183.038 104.206,182.825 103.743,182.751" style="fill:none;stroke-width:0.050000mm;stroke:black"/>
<polygon points="8.537,182.825 8.119,183.038 7.787,183.370 7.574,183.788 7.501,184.252 7.574,184.715 7.787,185.133 8.119,185.465 8.537,185.678 9.001,185.752 9.464,185.678 9.882,185.465 10.214,185.133 10.427,184.715 10.501,184.252 10.427,183.788 10.214,183.370 9.882,183.038 9.464,182.825 9.001,182.751" style="fill:none;stroke-width:0.050000mm;stroke:black"/>
<polygon points="13.114,93.476 13.114,180.126 289.114,180.126 289.114,93.476 239.114,93.476 239.114,112.126 63.114,112.126 63.114,93.476" style="fill:none;stroke-width:0.050000mm;stroke:black"/>
<polygon points="99.368,92.275 99.368,106.476 102.668,106.476 102.668,92.275" style="fill:none;stroke-width:0.050000mm;stroke:black"/>
<polygon points="199.368,92.275 199.368,106.476 202.668,106.476 202.668,92.275" style="fill:none;stroke-width:0.050000mm;stroke:black"/>
<polygon points="72.580,91.726 72.580,92.726 71.780,92.726 71.780,95.825 72.580,95.825 72.580,101.626 71.780,101.626 71.780,104.726 72.580,104.726 72.580,105.726 86.580,105.726 86.580,104.726 87.380,104.726 87.380,101.626 86.580,101.626 86.580,95.825 87.380,95.825 87.380,92.726 86.580,92.726 86.580,91.726" style="fill:none;stroke-width:0.050000mm;stroke:black"/>
<polygon points="144.018,91.726 144.018,92.726 143.218,92.726 143.218,95.825 144.018,95.825 144.018,101.626 143.218,101.626 143.218,104.726 144.018,104.726 144.018,105.726 158.018,105.726 158.018,104.726 158.818,104.726 158.818,101.626 158.018,101.626 158.018,95.825 158.818,95.825 158.818,92.726 158.018,92.726 158.018,91.726" style="fill:none;stroke-width:0.050000mm;stroke:black"/>
<polygon points="215.455,91.726 215.455,92.726 214.655,92.726 214.655,95.825 215.455,95.825 215.455,101.626 214.655,101.626 214.655,104.726 215.455,104.726 215.455,105.726 229.455,105.726 229.455,104.726 230.255,104.726 230.255,101.626 229.455,101.626 229.455,95.825 230.255,95.825 230.255,92.726 229.455,92.726 229.455,91.726" style="fill:none;stroke-width:0.050000mm;stroke:black"/>
<polygon points="292.763,95.199 292.345,95.412 292.013,95.744 291.800,96.162 291.727,96.626 291.800,97.090 292.013,97.508 292.345,97.840 292.763,98.053 293.227,98.126 293.690,98.053 294.108,97.840 294.440,97.508 294.653,97.090 294.727,96.626 294.653,96.162 294.440,95.744 294.108,95.412 293.690,95.199 293.227,95.126" style="fill:none;stroke-width:0.050000mm;stroke:black"/>
<polygon points="8.537,95.199 8.119,95.412 7.787,95.744 7.574,96.162 7.501,96.626 7.574,97.090 7.787,97.508 8.119,97.840 8.537,98.053 9.001,98.126 9.464,98.053 9.882,97.840 10.214,97.508 10.427,97.090 10.501,96.626 10.427,96.162 10.214,95.744 9.882,95.412 9.464,95.199 9.001,95.126" style="fill:none;stroke-width:0.050000mm;stroke:black"/>
<polygon points="20.882,73.226 20.882,87.426 24.182,87.426 24.182,73.226" style="fill:none;stroke-width:0.050000mm;stroke:black"/>
<polygon points="44.682,73.226 44.682,87.426 47.982,87.426 47.982,73.226" style="fill:none;stroke-width:0.050000mm;stroke:black"/>
<polygon points="254.244,73.226 254.244,87.426 257.544,87.426 257.544,73.226" style="fill:none;stroke-width:0.050000mm;stroke:black"/>
<polygon points="278.044,73.226 278.044,87.426 281.344,87.426 281.344,73.226" style="fill:none;stroke-width:0.050000mm;stroke:black"/>
<polygon points="27.432,72.676 27.432,73.676 26.632,73.676 26.632,76.775 27.432,76.775 27.432,82.576 26.632,82.576 26.632,85.676 27.432,85.676 27.432,86.676 41.432,86.676 41.432,85.676 42.232,85.676 42.232,82.576 41.432,82.576 41.432,76.775 42.232,76.775 42.232,73.676 41.432,73.676 41.432,72.676" style="fill:none;stroke-width:0.050000mm;stroke:black"/>
<polygon points="58.388,72.676 58.388,73.676 57.588,73.676 57.588,76.775 58.388,76.775 58.388,82.576 57.588,82.576 57.588,85.676 58.388,85.676 58.388,86.676 72.388,86.676 72.388,85.676 73.188,85.676 73.188,82.576 72.388,82.576 72.388,76.775 73.188,76.775 73.188,73.676 72.388,73.676 72.388,72.676" style="fill:none;stroke-width:0.050000mm;stroke:black"/>
<polygon points="77.438,72.676 77.438,73.676 76.638,73.676 76.638,76.775 77.438,76.775 77.438,82.576 76.638,82.576 76.638,85.676 77.438,85.676 77.438,86.676 91.438,86.676 91.438,85.676 92.238,85.676 92.238,82.576 91.438,82.576 91.438,76.775 92.238,76.775 92.238,73.676 91.438,73.676 91.438,72.676" style="fill:none;stroke-width:0.050000mm;stroke:black"/>
<polygon points="96.488,72.676 96.488,73.676 95.688,73.676 95.688,76.775 96.488,76.775 96.488,82.576 95.688,82.576 95.688,85.676 96.488,85.676 96.488,86.676 110.488,86.676 110.488,85.676 111.288,85.676 111.288,82.576 110.488,82.576 110.488,76.775 111.288,76.775 111.288,73.676 110.488,73.676 110.488,72.676" style="fill:none;stroke-width:0.050000mm;stroke:black"/>
<polygon points="115.538,72.676 115.538,73.676 114.738,73.676 114.738,76.775 115.538,76.775 115.538,82.576 114.738,82.576 114.738,85.676 115.538,85.676 115.538,86.676 129.538,86.676 129.538,85.676 130.337,85.676 130.337,82.576 129.538,82.576 129.538,76.775 130.337,76.775 130.337,73.676 129.538,73.676 129.538,72.676" style="fill:none;stroke-width:0.050000mm;stroke:black"/>
<polygon points="134.588,72.676 134.588,73.676 133.788,73.676 133.788,76.775 134.588,76.775 134.588,82.576 133.788,82.576 133.788,85.676 134.588,85.676 134.588,86.676 148.588,86.676 148.588,85.676 149.388,85.676 149.388,82.576 148.588,82.576 148.588,76.775 149.388,76.775 149.388,73.676 148.588,73.676 148.588,72.676" style="fill:none;stroke-width:0.050000mm;stroke:black"/>
<polygon points="153.638,72.676 153.638,73.676 152.838,73.676 152.838,76.775 153.638,76.775 153.638,82.576 152.838,82.576 152.838,85.676 153.638,85.676 153.638,86.676 167.638,86.676 167.638,85.676 168.438,85.676 168.438,82.576 167.638,82.576 167.638,76.775 168.438,76.775 168.438,73.676 167.638,73.676 167.638,72.676" style="fill:none;stroke-width:0.050000mm;stroke:black"/>
<polygon points="172.688,72.676 172.688,73.676 171.888,73.676 171.888,76.775 172.688,76.775 172.688,82.576 171.888,82.576 171.888,85.676 172.688,85.676 172.688,86.676 186.688,86.676 186.688,85.676 187.488,85.676 187.488,82.576 186.688,82.576 186.688,76.775 187.488,76.775 187.488,73.676 186.688,73.676 186.688,72.676" style="fill:none;stroke-width:0.050000mm;stroke:black"/>
<polygon points="191.738,72.676 191.738,73.676 190.938,73.676 190.938,76.775 191.738,76.775 191.738,82.576 190.938,82.576 190.938,85.676 191.738,85.676 191.738,86.676 205.738,86.676 205.738,85.676 206.538,85.676 206.538,82.576 205.738,82.576 205.738,76.775 206.538,76.775 206.538,73.676 205.738,73.676 205.738,72.676" style="fill:none;stroke-width:0.050000mm;stroke:black"/>
<polygon points="210.788,72.676 210.788,73.676 209.988,73.676 209.988,76.775 210.788,76.775 210.788,82.576 209.988,82.576 209.988,85.676 210.788,85.676 210.788,86.676 224.788,86.676 224.788,85.676 225.588,85.676 225.588,82.576 224.788,82.576 224.788,76.775 225.588,76.775 225.588,73.676 224.788,73.676 224.788,72.676" style="fill:none;stroke-width:0.050000mm;stroke:black"/>
<polygon points="229.838,72.676 229.838,73.676 229.038,73.676 229.038,76.775 229.838,76.775 229.838,82.576 229.038,82.576 229.038,85.676 229.838,85.676 229.838,86.676 243.838,86.676 243.838,85.676 244.638,85.676 244.638,82.576 243.838,82.576 243.838,76.775 244.638,76.775 244.638,73.676 243.838,73.676 243.838,72.676" style="fill:none;stroke-width:0.050000mm;stroke:black"/>
<polygon points="260.794,72.676 260.794,73.676 259.994,73.676 259.994,76.775 260.794,76.775 260.794,82.576 259.994,82.576 259.994,85.676 260.794,85.676 260.794,86.676 274.794,86.676 274.794,85.676 275.594,85.676 275.594,82.576 274.794,82.576 274.794,76.775 275.594,76.775 275.594,73.676 274.794,73.676 274.794,72.676" style="fill:none;stroke-width:0.050000mm;stroke:black"/>
<polygon points="22.669,53.626 22.669,54.626 21.869,54.626 21.869,57.726 22.669,57.726 22.669,63.526 21.869,63.526 21.869,66.626 22.669,66.626 22.669,67.626 36.669,67.626 36.669,66.626 37.469,66.626 37.469,63.526 36.669,63.526 36.669,57.726 37.469,57.726 37.469,54.626 36.669,54.626 36.669,53.626" style="fill:none;stroke-width:0.050000mm;stroke:black"/>
<polygon points="48.863,53.626 48.863,54.626 48.063,54.626 48.063,57.726 48.863,57.726 48.863,63.526 48.063,63.526 48.063,66.626 48.863,66.626 48.863,67.626 62.863,67.626 62.863,66.626 63.663,66.626 63.663,63.526 62.863,63.526 62.863,57.726 63.663,57.726 63.663,54.626 62.863,54.626 62.863,53.626" style="fill:none;stroke-width:0.050000mm;stroke:black"/>
<polygon points="67.913,53.626 67.913,54.626 67.113,54.626 67.113,57.726 67.913,57.726 67.913,63.526 67.113,63.526 67.113,66.626 67.913,66.626 67.913,67.626 81.913,67.626 81.913,66.626 82.713,66.626 82.713,63.526 81.913,63.526 81.913,57.726 82.713,57.726 82.713,54.626 81.913,54.626 81.913,53.626" style="fill:none;stroke-width:0.050000mm;stroke:black"/>
<polygon points="86.963,53.626 86.963,54.626 86.163,54.626 86.163,57.726 86.963,57.726 86.963,63.526 86.163,63.526 86.163,66.626 86.963,66.626 86.963,67.626 100.963,67.626 100.963,66.626 101.763,66.626 101.763,63.526 100.963,63.526 100.963,57.726 101.763,57.726 101.763,54.626 100.963,54.626 100.963,53.626" style="fill:none;stroke-width:0.050000mm;stroke:black"/>
<polygon points="106.013,53.626 106.013,54.626 105.213,54.626 105.213,57.726 106.013,57.726 106.013,63.526 105.213,63.526 105.213,66.626 106.013,66.626 106.013,67.626 120.013,67.626 120.013,66.626 120.813,66.626 120.813,63.526 120.013,63.526 120.013,57.726 120.813,57.726 120.813,54.626 120.013,54.626 120.013,53.626" style="fill:none;stroke-width:0.050000mm;stroke:black"/>
<polygon points="125.063,53.626 125.063,54.626 124.263,54.626 124.263,57.726 125.063,57.726 125.063,63.526 124.263,63.526 124.263,66.626 125.063,66.626 125.063,67.626 139.063,67.626 139.063,66.626 139.863,66.626 139.863,63.526 139.063,63.526 139.063,57.726 139.863,57.726 139.863,54.626 139.063,54.626 139.063,53.626" style="fill:none;stroke-width:0.050000mm;stroke:black"/>
<polygon points="144.113,53.626 144.113,54.626 143.313,54.626 143.313,57.726 144.113,57.726 144.113,63.526 143.313,63.526 143.313,66.626 144.113,66.626 144.113,67.626 158.113,67.626 158.113,66.626 158.913,66.626 158.913,63.526 158.113,63.526 158.113,57.726 158.913,57.726 158.913,54.626 158.113,54.626 158.113,53.626" style="fill:none;stroke-width:0.050000mm;stroke:black"/>
<polygon points="163.163,53.626 163.163,54.626 162.363,54.626 162.363,57.726 163.163,57.726 163.163,63.526 162.363,63.526 162.363,66.626 163.163,66.626 163.163,67.626 177.163,67.626 177.163,66.626 177.963,66.626 177.963,63.526 177.163,63.526 177.163,57.726 177.963,57.726 177.963,54.626 177.163,54.626 177.163,53.626" style="fill:none;stroke-width:0.050000mm;stroke:black"/>
<polygon points="182.213,53.626 182.213,54.626 181.413,54.626 181.413,57.726 182.213,57.726 182.213,63.526 181.413,63.526 181.413,66.626 182.213,66.626 182.213,67.626 196.213,67.626 196.213,66.626 197.013,66.626 197.013,63.526 196.213,63.526 196.213,57.726 197.013,57.726 197.013,54.626 196.213,54.626 196.213,53.626" style="fill:none;stroke-width:0.050000mm;stroke:black"/>
<polygon points="201.263,53.626 201.263,54.626 200.463,54.626 200.463,57.726 201.263,57.726 201.263,63.526 200.463,63.526 200.463,66.626 201.263,66.626 201.263,67.626 215.263,67.626 215.263,66.626 216.063,66.626 216.063,63.526 215.263,63.526 215.263,57.726 216.063,57.726 216.063,54.626 215.263,54.626 215.263,53.626" style="fill:none;stroke-width:0.050000mm;stroke:black"/>
<polygon points="220.313,53.626 220.313,54.626 219.513,54.626 219.513,57.726 220.313,57.726 220.313,63.526 219.513,63.526 219.513,66.626 220.313,66.626 220.313,67.626 234.313,67.626 234.313,66.626 235.113,66.626 235.113,63.526 234.313,63.526 234.313,57.726 235.113,57.726 235.113,54.626 234.313,54.626 234.313,53.626" style="fill:none;stroke-width:0.050000mm;stroke:black"/>
<polygon points="239.363,53.626 239.363,54.626 238.563,54.626 238.563,57.726 239.363,57.726 239.363,63.526 238.563,63.526 238.563,66.626 239.363,66.626 239.363,67.626 253.363,67.626 253.363,66.626 254.163,66.626 254.163,63.526 253.363,63.526 253.363,57.726 254.163,57.726 254.163,54.626 253.363,54.626 253.363,53.626" style="fill:none;stroke-width:0.050000mm;stroke:black"/>
<polygon points="265.557,53.626 265.557,54.626 264.757,54.626 264.757,57.726 265.557,57.726 265.557,63.526 264.757,63.526 264.757,66.626 265.557,66.626 265.557,67.626 279.557,67.626 279.557,66.626 280.357,66.626 280.357,63.526 279.557,63.526 279.557,57.726 280.357,57.726 280.357,54.626 279.557,54.626 279.557,53.626" style="fill:none;stroke-width:0.050000mm;stroke:black"/>
<polygon points="20.288,34.576 20.288,35.576 19.488,35.576 19.488,38.676 20.288,38.676 20.288,44.476 19.488,44.476 19.488,47.576 20.288,47.576 20.288,48.576 34.288,48.576 34.288,47.576 35.088,47.576 35.088,44.476 34.288,44.476 34.288,38.676 35.088,38.676 35.088,35.576 34.288,35.576 34.288,34.576" style="fill:none;stroke-width:0.050000mm;stroke:black"/>
<polygon points="44.101,34.576 44.101,35.576 43.301,35.576 43.301,38.676 44.101,38.676 44.101,44.476 43.301,44.476 43.301,47.576 44.101,47.576 44.101,48.576 58.101,48.576 58.101,47.576 58.901,47.576 58.901,44.476 58.101,44.476 58.101,38.676 58.901,38.676 58.901,35.576 58.101,35.576 58.101,34.576" style="fill:none;stroke-width:0.050000mm;stroke:black"/>
<polygon points="63.151,34.576 63.151,35.576 62.351,35.576 62.351,38.676 63.151,38.676 63.151,44.476 62.351,44.476 62.351,47.576 63.151,47.576 63.151,48.576 77.151,48.576 77.151,47.576 77.951,47.576 77.951,44.476 77.151,44.476 77.151,38.676 77.951,38.676 77.951,35.576 77.151,35.576 77.151,34.576" style="fill:none;stroke-width:0.050000mm;stroke:black"/>
<polygon points="82.201,34.576 82.201,35.576 81.401,35.576 81.401,38.676 82.201,38.676 82.201,44.476 81.401,44.476 81.401,47.576 82.201,47.576 82.201,48.576 96.201,48.576 96.201,47.576 97.001,47.576 97.001,44.476 96.201,44.476 96.201,38.676 97.001,38.676 97.001,35.576 96.201,35.576 96.201,34.576" style="fill:none;stroke-width:0.050000mm;stroke:black"/>
<polygon points="101.251,34.576 101.251,35.576 100.451,35.576 100.451,38.676 101.251,38.676 101.251,44.476 100.451,44.476 100.451,47.576 101.251,47.576 101.251,48.576 115.251,48.576 115.251,47.576 116.051,47.576 116.051,44.476 115.251,44.476 115.251,38.676 116.051,38.676 116.051,35.576 115.251,35.576 115.251,34.576" style="fill:none;stroke-width:0.050000mm;stroke:black"/>
<polygon points="120.301,34.576 120.301,35.576 119.501,35.576 119.501,38.676 120.301,38.676 120.301,44.476 119.501,44.476 119.501,47.576 120.301,47.576 120.301,48.576 134.301,48.576 134.301,47.576 135.101,47.576 135.101,44.476 134.301,44.476 134.301,38.676 135.101,38.676 135.101,35.576 134.301,35.576 134.301,34.576" style="fill:none;stroke-width:0.050000mm;stroke:black"/>
<polygon points="139.351,34.576 139.351,35.576 138.550,35.576 138.550,38.676 139.351,38.676 139.351,44.476 138.550,44.476 138.550,47.576 139.351,47.576 139.351,48.576 153.351,48.576 153.351,47.576 154.151,47.576 154.151,44.476 153.351,44.476 153.351,38.676 154.151,38.676 154.151,35.576 153.351,35.576 153.351,34.576" style="fill:none;stroke-width:0.050000mm;stroke:black"/>
<polygon points="158.401,34.576 158.401,35.576 157.601,35.576 157.601,38.676 158.401,38.676 158.401,44.476 157.601,44.476 157.601,47.576 158.401,47.576 158.401,48.576 172.401,48.576 172.401,47.576 173.201,47.576 173.201,44.476 172.401,44.476 172.401,38.676 173.201,38.676 173.201,35.576 172.401,35.576 172.401,34.576" style="fill:none;stroke-width:0.050000mm;stroke:black"/>
<polygon points="177.451,34.576 177.451,35.576 176.651,35.576 176.651,38.676 177.451,38.676 177.451,44.476 176.651,44.476 176.651,47.576 177.451,47.576 177.451,48.576 191.451,48.576 191.451,47.576 192.251,47.576 192.251,44.476 191.451,44.476 191.451,38.676 192.251,38.676 192.251,35.576 191.451,35.576 191.451,34.576" style="fill:none;stroke-width:0.050000mm;stroke:black"/>
<polygon points="196.501,34.576 196.501,35.576 195.701,35.576 195.701,38.676 196.501,38.676 196.501,44.476 195.701,44.476 195.701,47.576 196.501,47.576 196.501,48.576 210.501,48.576 210.501,47.576 211.301,47.576 211.301,44.476 210.501,44.476 210.501,38.676 211.301,38.676 211.301,35.576 210.501,35.576 210.501,34.576" style="fill:none;stroke-width:0.050000mm;stroke:black"/>
<polygon points="215.551,34.576 215.551,35.576 214.751,35.576 214.751,38.676 215.551,38.676 215.551,44.476 214.751,44.476 214.751,47.576 215.551,47.576 215.551,48.576 229.551,48.576 229.551,47.576 230.351,47.576 230.351,44.476 229.551,44.476 229.551,38.676 230.351,38.676 230.351,35.576 229.551,35.576 229.551,34.576" style="fill:none;stroke-width:0.050000mm;stroke:black"/>
<polygon points="234.601,34.576 234.601,35.576 233.801,35.576 233.801,38.676 234.601,38.676 234.601,44.476 233.801,44.476 233.801,47.576 234.601,47.576 234.601,48.576 248.601,48.576 248.601,47.576 249.401,47.576 249.401,44.476 248.601,44.476 248.601,38.676 249.401,38.676 249.401,35.576 248.601,35.576 248.601,34.576" style="fill:none;stroke-width:0.050000mm;stroke:black"/>
<polygon points="253.651,34.576 253.651,35.576 252.851,35.576 252.851,38.676 253.651,38.676 253.651,44.476 252.851,44.476 252.851,47.576 253.651,47.576 253.651,48.576 267.651,48.576 267.651,47.576 268.451,47.576 268.451,44.476 267.651,44.476 267.651,38.676 268.451,38.676 268.451,35.576 267.651,35.576 267.651,34.576" style="fill:none;stroke-width:0.050000mm;stroke:black"/>
<polygon points="272.701,34.576 272.701,35.576 271.901,35.576 271.901,38.676 272.701,38.676 272.701,44.476 271.901,44.476 271.901,47.576 272.701,47.576 272.701,48.576 286.701,48.576 286.701,47.576 287.501,47.576 287.501,44.476 286.701,44.476 286.701,38.676 287.501,38.676 287.501,35.576 286.701,35.576 286.701,34.576" style="fill:none;stroke-width:0.050000mm;stroke:black"/>
<polygon points="15.525,15.525 15.525,16.526 14.725,16.526 14.725,19.626 15.525,19.626 15.525,25.425 14.725,25.425 14.725,28.526 15.525,28.526 15.525,29.526 29.526,29.526 29.526,28.526 30.326,28.526 30.326,25.425 29.526,25.425 29.526,19.626 30.326,19.626 30.326,16.526 29.526,16.526 29.526,15.525" style="fill:none;stroke-width:0.050000mm;stroke:black"/>
<polygon points="34.576,15.525 34.576,16.526 33.776,16.526 33.776,19.626 34.576,19.626 34.576,25.425 33.776,25.425 33.776,28.526 34.576,28.526 34.576,29.526 48.576,29.526 48.576,28.526 49.376,28.526 49.376,25.425 48.576,25.425 48.576,19.626 49.376,19.626 49.376,16.526 48.576,16.526 48.576,15.525" style="fill:none;stroke-width:0.050000mm;stroke:black"/>
<polygon points="53.626,15.525 53.626,16.526 52.826,16.526 52.826,19.626 53.626,19.626 53.626,25.425 52.826,25.425 52.826,28.526 53.626,28.526 53.626,29.526 67.626,29.526 67.626,28.526 68.426,28.526 68.426,25.425 67.626,25.425 67.626,19.626 68.426,19.626 68.426,16.526 67.626,16.526 67.626,15.525" style="fill:none;stroke-width:0.050000mm;stroke:black"/>
<polygon points="72.676,15.525 72.676,16.526 71.876,16.526 71.876,19.626 72.676,19.626 72.676,25.425 71.876,25.425 71.876,28.526 72.676,28.526 72.676,29.526 86.676,29.526 86.676,28.526 87.476,28.526 87.476,25.425 86.676,25.425 86.676,19.626 87.476,19.626 87.476,16.526 86.676,16.526 86.676,15.525" style="fill:none;stroke-width:0.050000mm;stroke:black"/>
<polygon points="91.726,15.525 91.726,16.526 90.926,16.526 90.926,19.626 91.726,19.626 91.726,25.425 90.926,25.425 90.926,28.526 91.726,28.526 91.726,29.526 105.726,29.526 105.726,28.526 106.525,28.526 106.525,25.425 105.726,25.425 105.726,19.626 106.525,19.626 106.525,16.526 105.726,16.526 105.726,15.525" style="fill:none;stroke-width:0.050000mm;stroke:black"/>
<polygon points="110.775,15.525 110.775,16.526 109.976,16.526 109.976,19.626 110.775,19.626 110.775,25.425 109.976,25.425 109.976,28.526 110.775,28.526 110.775,29.526 124.775,29.526 124.775,28.526 125.575,28.526 125.575,25.425 124.775,25.425 124.775,19.626 125.575,19.626 125.575,16.526 124.775,16.526 124.775,15.525" style="fill:none;stroke-width:0.050000mm;stroke:black"/>
<polygon points="129.825,15.525 129.825,16.526 129.025,16.526 129.025,19.626 129.825,19.626 129.825,25.425 129.025,25.425 129.025,28.526 129.825,28.526 129.825,29.526 143.826,29.526 143.826,28.526 144.626,28.526 144.626,25.425 143.826,25.425 143.826,19.626 144.626,19.626 144.626,16.526 143.826,16.526 143.826,15.525" style="fill:none;stroke-width:0.050000mm;stroke:black"/>
<polygon points="148.876,15.525 148.876,16.526 148.076,16.526 148.076,19.626 148.876,19.626 148.876,25.425 148.076,25.425 148.076,28.526 148.876,28.526 148.876,29.526 162.876,29.526 162.876,28.526 163.676,28.526 163.676,25.425 162.876,25.425 162.876,19.626 163.676,19.626 163.676,16.526 162.876,16.526 162.876,15.525" style="fill:none;stroke-width:0.050000mm;stroke:black"/>
<polygon points="167.926,15.525 167.926,16.526 167.126,16.526 167.126,19.626 167.926,19.626 167.926,25.425 167.126,25.425 167.126,28.526 167.926,28.526 167.926,29.526 181.926,29.526 181.926,28.526 182.726,28.526 182.726,25.425 181.926,25.425 181.926,19.626 182.726,19.626 182.726,16.526 181.926,16.526 181.926,15.525" style="fill:none;stroke-width:0.050000mm;stroke:black"/>
<polygon points="186.976,15.525 186.976,16.526 186.176,16.526 186.176,19.626 186.976,19.626 186.976,25.425 186.176,25.425 186.176,28.526 186.976,28.526 186.976,29.526 200.976,29.526 200.976,28.526 201.776,28.526 201.776,25.425 200.976,25.425 200.976,19.626 201.776,19.626 201.776,16.526 200.976,16.526 200.976,15.525" style="fill:none;stroke-width:0.050000mm;stroke:black"/>
<polygon points="206.026,15.525 206.026,16.526 205.226,16.526 205.226,19.626 206.026,19.626 206.026,25.425 205.226,25.425 205.226,28.526 206.026,28.526 206.026,29.526 220.026,29.526 220.026,28.526 220.826,28.526 220.826,25.425 220.026,25.425 220.026,19.626 220.826,19.626 220.826,16.526 220.026,16.526 220.026,15.525" style="fill:none;stroke-width:0.050000mm;stroke:black"/>
<polygon points="225.076,15.525 225.076,16.526 224.276,16.526 224.276,19.626 225.076,19.626 225.076,25.425 224.276,25.425 224.276,28.526 225.076,28.526 225.076,29.526 239.076,29.526 239.076,28.526 239.876,28.526 239.876,25.425 239.076,25.425 239.076,19.626 239.876,19.626 239.876,16.526 239.076,16.526 239.076,15.525" style="fill:none;stroke-width:0.050000mm;stroke:black"/>
<polygon points="244.126,15.525 244.126,16.526 243.326,16.526 243.326,19.626 244.126,19.626 244.126,25.425 243.326,25.425 243.326,28.526 244.126,28.526 244.126,29.526 258.126,29.526 258.126,28.526 258.926,28.526 258.926,25.425 258.126,25.425 258.126,19.626 258.926,19.626 258.926,16.526 258.126,16.526 258.126,15.525" style="fill:none;stroke-width:0.050000mm;stroke:black"/>
<polygon points="267.938,15.525 267.938,16.526 267.138,16.526 267.138,19.626 267.938,19.626 267.938,25.425 267.138,25.425 267.138,28.526 267.938,28.526 267.938,29.526 281.938,29.526 281.938,28.526 282.738,28.526 282.738,25.425 281.938,25.425 281.938,19.626 282.738,19.626 282.738,16.526 281.938,16.526 281.938,15.525" style="fill:none;stroke-width:0.050000mm;stroke:black"/>
<polygon points="103.279,7.574 102.861,7.787 102.529,8.119 102.316,8.537 102.243,9.001 102.316,9.464 102.529,9.882 102.861,10.214 103.279,10.427 103.743,10.501 104.206,10.427 104.624,10.214 104.956,9.882 105.169,9.464 105.243,9.001 105.169,8.537 104.956,8.119 104.624,7.787 104.206,7.574 103.743,7.501" style="fill:none;stroke-width:0.050000mm;stroke:black"/>
<polygon points="198.021,7.574 197.603,7.787 197.271,8.119 197.058,8.537 196.985,9.001 197.058,9.464 197.271,9.882 197.603,10.214 198.021,10.427 198.485,10.501 198.948,10.427 199.366,10.214 199.698,9.882 199.911,9.464 199.985,9.001 199.911,8.537 199.698,8.119 199.366,7.787 198.948,7.574 198.485,7.501" style="fill:none;stroke-width:0.050000mm;stroke:black"/>
<polygon points="292.763,7.574 292.345,7.787 292.013,8.119 291.800,8.537 291.727,9.001 291.800,9.464 292.013,9.882 292.345,10.214 292.763,10.427 293.227,10.501 293.690,10.427 294.108,10.214 294.440,9.882 294.653,9.464 294.727,9.001 294.653,8.537 294.440,8.119 294.108,7.787 293.690,7.574 293.227,7.501" style="fill:none;stroke-width:0.050000mm;stroke:black"/>
<polygon points="8.537,7.574 8.119,7.787 7.787,8.119 7.574,8.537 7.501,9.001 7.574,9.464 7.787,9.882 8.119,10.214 8.537,10.427 9.001,10.501 9.464,10.427 9.882,10.214 10.214,9.882 10.427,9.464 10.501,9.001 10.427,8.537 10.214,8.119 9.882,7.787 9.464,7.574 9.001,7.501" style="fill:none;stroke-width:0.050000mm;stroke:black"/>
</svg>
