<?xml version="1.0"?>
<!-- Generated by SVGo -->
<svg width="302.227mm" height="193.252mm"
     viewBox="0.000 0.000 302.227 193.252"
     xmlns="http://www.w3.org/2000/svg" 
     xmlns:xlink="http://www.w3.org/1999/xlink">
<polygon points="294.227,5.001 294.462,5.010 294.696,5.037 294.927,5.083 295.154,5.147 295.375,5.229 295.588,5.327 295.794,5.443 295.990,5.573 296.175,5.719 296.348,5.879 296.508,6.052 296.654,6.237 296.784,6.433 296.900,6.639 296.998,6.852 297.080,7.073 297.144,7.300 297.190,7.531 297.217,7.765 297.227,8.001 297.227,185.251 297.217,185.487 297.190,185.721 297.144,185.952 297.080,186.179 296.998,186.400 296.900,186.613 296.784,186.819 296.654,187.015 296.508,187.200 296.348,187.373 296.175,187.533 295.990,187.679 295.794,187.809 295.588,187.925 295.375,188.023 295.154,188.105 294.927,188.169 294.696,188.215 294.462,188.242 294.227,188.252 8.001,188.251 7.765,188.242 7.531,188.215 7.300,188.169 7.073,188.105 6.852,188.023 6.639,187.925 6.433,187.809 6.237,187.679 6.052,187.533 5.879,187.373 5.719,187.200 5.573,187.015 5.443,186.819 5.327,186.613 5.229,186.400 5.147,186.179 5.083,185.952 5.037,185.721 5.010,185.487 5.000,185.251 5.001,8.001 5.010,7.765 5.037,7.531 5.083,7.300 5.147,7.073 5.229,6.852 5.327,6.639 5.443,6.433 5.573,6.237 5.719,6.052 5.879,5.879 6.052,5.719 6.237,5.573 6.433,5.443 6.639,5.327 6.852,5.229 7.073,5.147 7.300,5.083 7.531,5.037 7.765,5.010 8.001,5.000" style="fill:none;stroke-width:0.050000mm;stroke:black"/>
<polygon points="12.999,12.999 12.999,32.052 13.000,32.052 13.000,51.100 12.999,51.100 12.999,70.152 13.000,70.152 13.000,108.251 41.577,108.251 41.577,89.202 67.673,89.202 67.673,108.251 234.363,108.251 234.363,89.202 260.650,89.202 260.650,108.251 289.227,108.251 289.227,12.999" style="fill:none;stroke-width:0.050000mm;stroke:black"/>
</svg>
