  0
SECTION
  2
BLOCKS
  0
ENDSEC
  0
SECTION
  2
ENTITIES
  0
LINE
  8
0
 10
283.556
 20
0.141602
 11
283.79
 21
0.167969
  0
LINE
  8
0
 10
283.79
 20
0.167969
 11
284.022
 21
0.214844
  0
LINE
  8
0
 10
284.022
 20
0.214844
 11
284.248
 21
0.27832
  0
LINE
  8
0
 10
284.248
 20
0.27832
 11
284.47
 21
0.359375
  0
LINE
  8
0
 10
284.47
 20
0.359375
 11
284.682
 21
0.458984
  0
LINE
  8
0
 10
284.682
 20
0.458984
 11
284.889
 21
0.574219
  0
LINE
  8
0
 10
284.889
 20
0.574219
 11
285.084
 21
0.704102
  0
LINE
  8
0
 10
285.084
 20
0.704102
 11
285.269
 21
0.850586
  0
LINE
  8
0
 10
285.269
 20
0.850586
 11
285.443
 21
1.00977
  0
LINE
  8
0
 10
285.443
 20
1.00977
 11
285.603
 21
1.18359
  0
LINE
  8
0
 10
285.603
 20
1.18359
 11
285.749
 21
1.36816
  0
LINE
  8
0
 10
285.749
 20
1.36816
 11
285.878
 21
1.56445
  0
LINE
  8
0
 10
285.878
 20
1.56445
 11
285.994
 21
1.77051
  0
LINE
  8
0
 10
285.994
 20
1.77051
 11
286.093
 21
1.9834
  0
LINE
  8
0
 10
286.093
 20
1.9834
 11
286.174
 21
2.20508
  0
LINE
  8
0
 10
286.174
 20
2.20508
 11
286.238
 21
2.43066
  0
LINE
  8
0
 10
286.238
 20
2.43066
 11
286.285
 21
2.66211
  0
LINE
  8
0
 10
286.285
 20
2.66211
 11
286.311
 21
2.89648
  0
LINE
  8
0
 10
286.311
 20
2.89648
 11
286.322
 21
3.13184
  0
LINE
  8
0
 10
286.322
 20
3.13184
 11
286.322
 21
108.383
  0
LINE
  8
0
 10
286.322
 20
108.383
 11
286.311
 21
108.619
  0
LINE
  8
0
 10
286.311
 20
108.619
 11
286.285
 21
108.853
  0
LINE
  8
0
 10
286.285
 20
108.853
 11
286.238
 21
109.083
  0
LINE
  8
0
 10
286.238
 20
109.083
 11
286.174
 21
109.31
  0
LINE
  8
0
 10
286.174
 20
109.31
 11
286.093
 21
109.53
  0
LINE
  8
0
 10
286.093
 20
109.53
 11
285.994
 21
109.744
  0
LINE
  8
0
 10
285.994
 20
109.744
 11
285.878
 21
109.951
  0
LINE
  8
0
 10
285.878
 20
109.951
 11
285.749
 21
110.147
  0
LINE
  8
0
 10
285.749
 20
110.147
 11
285.603
 21
110.331
  0
LINE
  8
0
 10
285.603
 20
110.331
 11
285.443
 21
110.505
  0
LINE
  8
0
 10
285.443
 20
110.505
 11
285.269
 21
110.665
  0
LINE
  8
0
 10
285.269
 20
110.665
 11
285.084
 21
110.811
  0
LINE
  8
0
 10
285.084
 20
110.811
 11
284.889
 21
110.94
  0
LINE
  8
0
 10
284.889
 20
110.94
 11
284.682
 21
111.056
  0
LINE
  8
0
 10
284.682
 20
111.056
 11
284.47
 21
111.154
  0
LINE
  8
0
 10
284.47
 20
111.154
 11
284.248
 21
111.236
  0
LINE
  8
0
 10
284.248
 20
111.236
 11
284.022
 21
111.3
  0
LINE
  8
0
 10
284.022
 20
111.3
 11
283.79
 21
111.347
  0
LINE
  8
0
 10
283.79
 20
111.347
 11
283.556
 21
111.373
  0
LINE
  8
0
 10
283.556
 20
111.373
 11
283.322
 21
111.383
  0
LINE
  8
0
 10
283.322
 20
111.383
 11
3.09473
 21
111.383
  0
LINE
  8
0
 10
3.09473
 20
111.383
 11
2.85938
 21
111.373
  0
LINE
  8
0
 10
2.85938
 20
111.373
 11
2.625
 21
111.347
  0
LINE
  8
0
 10
2.625
 20
111.347
 11
2.39551
 21
111.3
  0
LINE
  8
0
 10
2.39551
 20
111.3
 11
2.16797
 21
111.236
  0
LINE
  8
0
 10
2.16797
 20
111.236
 11
1.94727
 21
111.154
  0
LINE
  8
0
 10
1.94727
 20
111.154
 11
1.7334
 21
111.056
  0
LINE
  8
0
 10
1.7334
 20
111.056
 11
1.52734
 21
110.94
  0
LINE
  8
0
 10
1.52734
 20
110.94
 11
1.33105
 21
110.811
  0
LINE
  8
0
 10
1.33105
 20
110.811
 11
1.14648
 21
110.665
  0
LINE
  8
0
 10
1.14648
 20
110.665
 11
0.972656
 21
110.505
  0
LINE
  8
0
 10
0.972656
 20
110.505
 11
0.813477
 21
110.331
  0
LINE
  8
0
 10
0.813477
 20
110.331
 11
0.666992
 21
110.147
  0
LINE
  8
0
 10
0.666992
 20
110.147
 11
0.537109
 21
109.951
  0
LINE
  8
0
 10
0.537109
 20
109.951
 11
0.421875
 21
109.744
  0
LINE
  8
0
 10
0.421875
 20
109.744
 11
0.324219
 21
109.53
  0
LINE
  8
0
 10
0.324219
 20
109.53
 11
0.241211
 21
109.31
  0
LINE
  8
0
 10
0.241211
 20
109.31
 11
0.177734
 21
109.083
  0
LINE
  8
0
 10
0.177734
 20
109.083
 11
0.130859
 21
108.853
  0
LINE
  8
0
 10
0.130859
 20
108.853
 11
0.104492
 21
108.619
  0
LINE
  8
0
 10
0.104492
 20
108.619
 11
0.0947266
 21
108.383
  0
LINE
  8
0
 10
0.0947266
 20
108.383
 11
0.0947266
 21
3.13184
  0
LINE
  8
0
 10
0.0947266
 20
3.13184
 11
0.104492
 21
2.89648
  0
LINE
  8
0
 10
0.104492
 20
2.89648
 11
0.130859
 21
2.66211
  0
LINE
  8
0
 10
0.130859
 20
2.66211
 11
0.177734
 21
2.43066
  0
LINE
  8
0
 10
0.177734
 20
2.43066
 11
0.241211
 21
2.20508
  0
LINE
  8
0
 10
0.241211
 20
2.20508
 11
0.324219
 21
1.9834
  0
LINE
  8
0
 10
0.324219
 20
1.9834
 11
0.421875
 21
1.77051
  0
LINE
  8
0
 10
0.421875
 20
1.77051
 11
0.537109
 21
1.56445
  0
LINE
  8
0
 10
0.537109
 20
1.56445
 11
0.666992
 21
1.36816
  0
LINE
  8
0
 10
0.666992
 20
1.36816
 11
0.813477
 21
1.18359
  0
LINE
  8
0
 10
0.813477
 20
1.18359
 11
0.972656
 21
1.00977
  0
LINE
  8
0
 10
0.972656
 20
1.00977
 11
1.14648
 21
0.850586
  0
LINE
  8
0
 10
1.14648
 20
0.850586
 11
1.33105
 21
0.704102
  0
LINE
  8
0
 10
1.33105
 20
0.704102
 11
1.52734
 21
0.574219
  0
LINE
  8
0
 10
1.52734
 20
0.574219
 11
1.7334
 21
0.458984
  0
LINE
  8
0
 10
1.7334
 20
0.458984
 11
1.94727
 21
0.359375
  0
LINE
  8
0
 10
1.94727
 20
0.359375
 11
2.16797
 21
0.27832
  0
LINE
  8
0
 10
2.16797
 20
0.27832
 11
2.39551
 21
0.214844
  0
LINE
  8
0
 10
2.39551
 20
0.214844
 11
2.625
 21
0.167969
  0
LINE
  8
0
 10
2.625
 20
0.167969
 11
2.85938
 21
0.141602
  0
LINE
  8
0
 10
2.85938
 20
0.141602
 11
3.09473
 21
0.131836
  0
LINE
  8
0
 10
3.09473
 20
0.131836
 11
283.322
 21
0.130859
  0
LINE
  8
0
 10
283.322
 20
0.130859
 11
283.556
 21
0.141602
  0
LINE
  8
0
 10
3.63086
 20
105.956
 11
3.21387
 21
106.17
  0
LINE
  8
0
 10
3.21387
 20
106.17
 11
2.88184
 21
106.502
  0
LINE
  8
0
 10
2.88184
 20
106.502
 11
2.66797
 21
106.919
  0
LINE
  8
0
 10
2.66797
 20
106.919
 11
2.59473
 21
107.382
  0
LINE
  8
0
 10
2.59473
 20
107.382
 11
2.66797
 21
107.847
  0
LINE
  8
0
 10
2.66797
 20
107.847
 11
2.88184
 21
108.264
  0
LINE
  8
0
 10
2.88184
 20
108.264
 11
3.21387
 21
108.596
  0
LINE
  8
0
 10
3.21387
 20
108.596
 11
3.63086
 21
108.81
  0
LINE
  8
0
 10
3.63086
 20
108.81
 11
4.0957
 21
108.883
  0
LINE
  8
0
 10
4.0957
 20
108.883
 11
4.55859
 21
108.81
  0
LINE
  8
0
 10
4.55859
 20
108.81
 11
4.97656
 21
108.596
  0
LINE
  8
0
 10
4.97656
 20
108.596
 11
5.30859
 21
108.264
  0
LINE
  8
0
 10
5.30859
 20
108.264
 11
5.52148
 21
107.847
  0
LINE
  8
0
 10
5.52148
 20
107.847
 11
5.59473
 21
107.382
  0
LINE
  8
0
 10
5.59473
 20
107.382
 11
5.52148
 21
106.919
  0
LINE
  8
0
 10
5.52148
 20
106.919
 11
5.30859
 21
106.502
  0
LINE
  8
0
 10
5.30859
 20
106.502
 11
4.97656
 21
106.17
  0
LINE
  8
0
 10
4.97656
 20
106.17
 11
4.55859
 21
105.956
  0
LINE
  8
0
 10
4.55859
 20
105.956
 11
4.0957
 21
105.883
  0
LINE
  8
0
 10
4.0957
 20
105.883
 11
3.63086
 21
105.956
  0
LINE
  8
0
 10
281.857
 20
105.956
 11
281.439
 21
106.17
  0
LINE
  8
0
 10
281.439
 20
106.17
 11
281.107
 21
106.502
  0
LINE
  8
0
 10
281.107
 20
106.502
 11
280.894
 21
106.919
  0
LINE
  8
0
 10
280.894
 20
106.919
 11
280.822
 21
107.382
  0
LINE
  8
0
 10
280.822
 20
107.382
 11
280.894
 21
107.847
  0
LINE
  8
0
 10
280.894
 20
107.847
 11
281.107
 21
108.264
  0
LINE
  8
0
 10
281.107
 20
108.264
 11
281.439
 21
108.596
  0
LINE
  8
0
 10
281.439
 20
108.596
 11
281.857
 21
108.81
  0
LINE
  8
0
 10
281.857
 20
108.81
 11
282.321
 21
108.883
  0
LINE
  8
0
 10
282.321
 20
108.883
 11
282.785
 21
108.81
  0
LINE
  8
0
 10
282.785
 20
108.81
 11
283.202
 21
108.596
  0
LINE
  8
0
 10
283.202
 20
108.596
 11
283.534
 21
108.264
  0
LINE
  8
0
 10
283.534
 20
108.264
 11
283.748
 21
107.847
  0
LINE
  8
0
 10
283.748
 20
107.847
 11
283.822
 21
107.382
  0
LINE
  8
0
 10
283.822
 20
107.382
 11
283.748
 21
106.919
  0
LINE
  8
0
 10
283.748
 20
106.919
 11
283.534
 21
106.502
  0
LINE
  8
0
 10
283.534
 20
106.502
 11
283.202
 21
106.17
  0
LINE
  8
0
 10
283.202
 20
106.17
 11
282.785
 21
105.956
  0
LINE
  8
0
 10
282.785
 20
105.956
 11
282.321
 21
105.883
  0
LINE
  8
0
 10
282.321
 20
105.883
 11
281.857
 21
105.956
  0
LINE
  8
0
 10
96.373
 20
105.956
 11
95.9561
 21
106.17
  0
LINE
  8
0
 10
95.9561
 20
106.17
 11
95.624
 21
106.502
  0
LINE
  8
0
 10
95.624
 20
106.502
 11
95.4102
 21
106.919
  0
LINE
  8
0
 10
95.4102
 20
106.919
 11
95.3369
 21
107.382
  0
LINE
  8
0
 10
95.3369
 20
107.382
 11
95.4102
 21
107.847
  0
LINE
  8
0
 10
95.4102
 20
107.847
 11
95.624
 21
108.264
  0
LINE
  8
0
 10
95.624
 20
108.264
 11
95.9561
 21
108.596
  0
LINE
  8
0
 10
95.9561
 20
108.596
 11
96.373
 21
108.81
  0
LINE
  8
0
 10
96.373
 20
108.81
 11
96.8379
 21
108.883
  0
LINE
  8
0
 10
96.8379
 20
108.883
 11
97.3008
 21
108.81
  0
LINE
  8
0
 10
97.3008
 20
108.81
 11
97.7178
 21
108.596
  0
LINE
  8
0
 10
97.7178
 20
108.596
 11
98.0508
 21
108.264
  0
LINE
  8
0
 10
98.0508
 20
108.264
 11
98.2637
 21
107.847
  0
LINE
  8
0
 10
98.2637
 20
107.847
 11
98.3369
 21
107.382
  0
LINE
  8
0
 10
98.3369
 20
107.382
 11
98.2637
 21
106.919
  0
LINE
  8
0
 10
98.2637
 20
106.919
 11
98.0508
 21
106.502
  0
LINE
  8
0
 10
98.0508
 20
106.502
 11
97.7178
 21
106.17
  0
LINE
  8
0
 10
97.7178
 20
106.17
 11
97.3008
 21
105.956
  0
LINE
  8
0
 10
97.3008
 20
105.956
 11
96.8379
 21
105.883
  0
LINE
  8
0
 10
96.8379
 20
105.883
 11
96.373
 21
105.956
  0
LINE
  8
0
 10
189.115
 20
105.956
 11
188.698
 21
106.17
  0
LINE
  8
0
 10
188.698
 20
106.17
 11
188.365
 21
106.502
  0
LINE
  8
0
 10
188.365
 20
106.502
 11
188.152
 21
106.919
  0
LINE
  8
0
 10
188.152
 20
106.919
 11
188.08
 21
107.382
  0
LINE
  8
0
 10
188.08
 20
107.382
 11
188.152
 21
107.847
  0
LINE
  8
0
 10
188.152
 20
107.847
 11
188.365
 21
108.264
  0
LINE
  8
0
 10
188.365
 20
108.264
 11
188.698
 21
108.596
  0
LINE
  8
0
 10
188.698
 20
108.596
 11
189.115
 21
108.81
  0
LINE
  8
0
 10
189.115
 20
108.81
 11
189.58
 21
108.883
  0
LINE
  8
0
 10
189.58
 20
108.883
 11
190.042
 21
108.81
  0
LINE
  8
0
 10
190.042
 20
108.81
 11
190.46
 21
108.596
  0
LINE
  8
0
 10
190.46
 20
108.596
 11
190.792
 21
108.264
  0
LINE
  8
0
 10
190.792
 20
108.264
 11
191.006
 21
107.847
  0
LINE
  8
0
 10
191.006
 20
107.847
 11
191.08
 21
107.382
  0
LINE
  8
0
 10
191.08
 20
107.382
 11
191.006
 21
106.919
  0
LINE
  8
0
 10
191.006
 20
106.919
 11
190.792
 21
106.502
  0
LINE
  8
0
 10
190.792
 20
106.502
 11
190.46
 21
106.17
  0
LINE
  8
0
 10
190.46
 20
106.17
 11
190.042
 21
105.956
  0
LINE
  8
0
 10
190.042
 20
105.956
 11
189.58
 21
105.883
  0
LINE
  8
0
 10
189.58
 20
105.883
 11
189.115
 21
105.956
  0
LINE
  8
0
 10
179.071
 20
86.8574
 11
179.071
 21
100.858
  0
LINE
  8
0
 10
179.071
 20
100.858
 11
193.07
 21
100.858
  0
LINE
  8
0
 10
193.07
 20
100.858
 11
193.07
 21
86.8574
  0
LINE
  8
0
 10
193.07
 20
86.8574
 11
179.071
 21
86.8574
  0
LINE
  8
0
 10
260.033
 20
86.8574
 11
260.033
 21
100.858
  0
LINE
  8
0
 10
260.033
 20
100.858
 11
274.032
 21
100.858
  0
LINE
  8
0
 10
274.032
 20
100.858
 11
274.032
 21
86.8574
  0
LINE
  8
0
 10
274.032
 20
86.8574
 11
260.033
 21
86.8574
  0
LINE
  8
0
 10
236.221
 20
86.8574
 11
236.221
 21
100.858
  0
LINE
  8
0
 10
236.221
 20
100.858
 11
250.22
 21
100.858
  0
LINE
  8
0
 10
250.22
 20
100.858
 11
250.22
 21
86.8574
  0
LINE
  8
0
 10
250.22
 20
86.8574
 11
236.221
 21
86.8574
  0
LINE
  8
0
 10
217.171
 20
86.8574
 11
217.171
 21
100.858
  0
LINE
  8
0
 10
217.171
 20
100.858
 11
231.17
 21
100.858
  0
LINE
  8
0
 10
231.17
 20
100.858
 11
231.17
 21
86.8574
  0
LINE
  8
0
 10
231.17
 20
86.8574
 11
217.171
 21
86.8574
  0
LINE
  8
0
 10
198.121
 20
86.8574
 11
198.121
 21
100.858
  0
LINE
  8
0
 10
198.121
 20
100.858
 11
212.12
 21
100.858
  0
LINE
  8
0
 10
212.12
 20
100.858
 11
212.12
 21
86.8574
  0
LINE
  8
0
 10
212.12
 20
86.8574
 11
198.121
 21
86.8574
  0
LINE
  8
0
 10
160.021
 20
86.8574
 11
160.021
 21
100.858
  0
LINE
  8
0
 10
160.021
 20
100.858
 11
174.02
 21
100.858
  0
LINE
  8
0
 10
174.02
 20
100.858
 11
174.02
 21
86.8574
  0
LINE
  8
0
 10
174.02
 20
86.8574
 11
160.021
 21
86.8574
  0
LINE
  8
0
 10
140.971
 20
86.8574
 11
140.971
 21
100.858
  0
LINE
  8
0
 10
140.971
 20
100.858
 11
154.97
 21
100.858
  0
LINE
  8
0
 10
154.97
 20
100.858
 11
154.97
 21
86.8574
  0
LINE
  8
0
 10
154.97
 20
86.8574
 11
140.971
 21
86.8574
  0
LINE
  8
0
 10
121.919
 20
86.8574
 11
121.919
 21
100.858
  0
LINE
  8
0
 10
121.919
 20
100.858
 11
135.92
 21
100.858
  0
LINE
  8
0
 10
135.92
 20
100.858
 11
135.92
 21
86.8574
  0
LINE
  8
0
 10
135.92
 20
86.8574
 11
121.919
 21
86.8574
  0
LINE
  8
0
 10
102.869
 20
86.8574
 11
102.869
 21
100.858
  0
LINE
  8
0
 10
102.869
 20
100.858
 11
116.87
 21
100.858
  0
LINE
  8
0
 10
116.87
 20
100.858
 11
116.87
 21
86.8574
  0
LINE
  8
0
 10
116.87
 20
86.8574
 11
102.869
 21
86.8574
  0
LINE
  8
0
 10
83.8203
 20
86.8574
 11
83.8203
 21
100.858
  0
LINE
  8
0
 10
83.8203
 20
100.858
 11
97.8203
 21
100.858
  0
LINE
  8
0
 10
97.8203
 20
100.858
 11
97.8203
 21
86.8574
  0
LINE
  8
0
 10
97.8203
 20
86.8574
 11
83.8203
 21
86.8574
  0
LINE
  8
0
 10
64.7705
 20
86.8574
 11
64.7705
 21
100.858
  0
LINE
  8
0
 10
64.7705
 20
100.858
 11
78.7695
 21
100.858
  0
LINE
  8
0
 10
78.7695
 20
100.858
 11
78.7695
 21
86.8574
  0
LINE
  8
0
 10
78.7695
 20
86.8574
 11
64.7705
 21
86.8574
  0
LINE
  8
0
 10
45.7207
 20
86.8574
 11
45.7207
 21
100.858
  0
LINE
  8
0
 10
45.7207
 20
100.858
 11
59.7197
 21
100.858
  0
LINE
  8
0
 10
59.7197
 20
100.858
 11
59.7197
 21
86.8574
  0
LINE
  8
0
 10
59.7197
 20
86.8574
 11
45.7207
 21
86.8574
  0
LINE
  8
0
 10
26.6709
 20
86.8574
 11
26.6709
 21
100.858
  0
LINE
  8
0
 10
26.6709
 20
100.858
 11
40.6699
 21
100.858
  0
LINE
  8
0
 10
40.6699
 20
100.858
 11
40.6699
 21
86.8574
  0
LINE
  8
0
 10
40.6699
 20
86.8574
 11
26.6709
 21
86.8574
  0
LINE
  8
0
 10
7.61914
 20
86.8574
 11
7.61914
 21
100.858
  0
LINE
  8
0
 10
7.61914
 20
100.858
 11
21.6201
 21
100.858
  0
LINE
  8
0
 10
21.6201
 20
100.858
 11
21.6201
 21
86.8574
  0
LINE
  8
0
 10
21.6201
 20
86.8574
 11
7.61914
 21
86.8574
  0
LINE
  8
0
 10
36.1953
 20
67.8076
 11
36.1953
 21
81.8076
  0
LINE
  8
0
 10
36.1953
 20
81.8076
 11
50.1953
 21
81.8076
  0
LINE
  8
0
 10
50.1953
 20
81.8076
 11
50.1953
 21
67.8076
  0
LINE
  8
0
 10
50.1953
 20
67.8076
 11
36.1953
 21
67.8076
  0
LINE
  8
0
 10
264.796
 20
67.8076
 11
264.796
 21
81.8076
  0
LINE
  8
0
 10
264.796
 20
81.8076
 11
278.795
 21
81.8076
  0
LINE
  8
0
 10
278.795
 20
81.8076
 11
278.795
 21
67.8076
  0
LINE
  8
0
 10
278.795
 20
67.8076
 11
264.796
 21
67.8076
  0
LINE
  8
0
 10
245.746
 20
67.8076
 11
245.746
 21
81.8076
  0
LINE
  8
0
 10
245.746
 20
81.8076
 11
259.745
 21
81.8076
  0
LINE
  8
0
 10
259.745
 20
81.8076
 11
259.745
 21
67.8076
  0
LINE
  8
0
 10
259.745
 20
67.8076
 11
245.746
 21
67.8076
  0
LINE
  8
0
 10
226.696
 20
67.8076
 11
226.696
 21
81.8076
  0
LINE
  8
0
 10
226.696
 20
81.8076
 11
240.695
 21
81.8076
  0
LINE
  8
0
 10
240.695
 20
81.8076
 11
240.695
 21
67.8076
  0
LINE
  8
0
 10
240.695
 20
67.8076
 11
226.696
 21
67.8076
  0
LINE
  8
0
 10
207.646
 20
67.8076
 11
207.646
 21
81.8076
  0
LINE
  8
0
 10
207.646
 20
81.8076
 11
221.645
 21
81.8076
  0
LINE
  8
0
 10
221.645
 20
81.8076
 11
221.645
 21
67.8076
  0
LINE
  8
0
 10
221.645
 20
67.8076
 11
207.646
 21
67.8076
  0
LINE
  8
0
 10
188.596
 20
67.8076
 11
188.596
 21
81.8076
  0
LINE
  8
0
 10
188.596
 20
81.8076
 11
202.595
 21
81.8076
  0
LINE
  8
0
 10
202.595
 20
81.8076
 11
202.595
 21
67.8076
  0
LINE
  8
0
 10
202.595
 20
67.8076
 11
188.596
 21
67.8076
  0
LINE
  8
0
 10
169.546
 20
67.8076
 11
169.546
 21
81.8076
  0
LINE
  8
0
 10
169.546
 20
81.8076
 11
183.545
 21
81.8076
  0
LINE
  8
0
 10
183.545
 20
81.8076
 11
183.545
 21
67.8076
  0
LINE
  8
0
 10
183.545
 20
67.8076
 11
169.546
 21
67.8076
  0
LINE
  8
0
 10
150.496
 20
67.8076
 11
150.496
 21
81.8076
  0
LINE
  8
0
 10
150.496
 20
81.8076
 11
164.495
 21
81.8076
  0
LINE
  8
0
 10
164.495
 20
81.8076
 11
164.495
 21
67.8076
  0
LINE
  8
0
 10
164.495
 20
67.8076
 11
150.496
 21
67.8076
  0
LINE
  8
0
 10
131.446
 20
67.8076
 11
131.446
 21
81.8076
  0
LINE
  8
0
 10
131.446
 20
81.8076
 11
145.445
 21
81.8076
  0
LINE
  8
0
 10
145.445
 20
81.8076
 11
145.445
 21
67.8076
  0
LINE
  8
0
 10
145.445
 20
67.8076
 11
131.446
 21
67.8076
  0
LINE
  8
0
 10
112.396
 20
67.8076
 11
112.396
 21
81.8076
  0
LINE
  8
0
 10
112.396
 20
81.8076
 11
126.395
 21
81.8076
  0
LINE
  8
0
 10
126.395
 20
81.8076
 11
126.395
 21
67.8076
  0
LINE
  8
0
 10
126.395
 20
67.8076
 11
112.396
 21
67.8076
  0
LINE
  8
0
 10
93.3457
 20
67.8076
 11
93.3457
 21
81.8076
  0
LINE
  8
0
 10
93.3457
 20
81.8076
 11
107.345
 21
81.8076
  0
LINE
  8
0
 10
107.345
 20
81.8076
 11
107.345
 21
67.8076
  0
LINE
  8
0
 10
107.345
 20
67.8076
 11
93.3457
 21
67.8076
  0
LINE
  8
0
 10
74.2959
 20
67.8076
 11
74.2959
 21
81.8076
  0
LINE
  8
0
 10
74.2959
 20
81.8076
 11
88.2949
 21
81.8076
  0
LINE
  8
0
 10
88.2949
 20
81.8076
 11
88.2949
 21
67.8076
  0
LINE
  8
0
 10
88.2949
 20
67.8076
 11
74.2959
 21
67.8076
  0
LINE
  8
0
 10
55.2461
 20
67.8076
 11
55.2461
 21
81.8076
  0
LINE
  8
0
 10
55.2461
 20
81.8076
 11
69.2451
 21
81.8076
  0
LINE
  8
0
 10
69.2451
 20
81.8076
 11
69.2451
 21
67.8076
  0
LINE
  8
0
 10
69.2451
 20
67.8076
 11
55.2461
 21
67.8076
  0
LINE
  8
0
 10
12.3828
 20
67.8076
 11
12.3828
 21
81.8076
  0
LINE
  8
0
 10
12.3828
 20
81.8076
 11
26.3828
 21
81.8076
  0
LINE
  8
0
 10
26.3828
 20
81.8076
 11
26.3828
 21
67.8076
  0
LINE
  8
0
 10
26.3828
 20
67.8076
 11
12.3828
 21
67.8076
  0
LINE
  8
0
 10
14.7627
 20
48.7578
 11
14.7627
 21
62.7578
  0
LINE
  8
0
 10
14.7627
 20
62.7578
 11
28.7637
 21
62.7578
  0
LINE
  8
0
 10
28.7637
 20
62.7578
 11
28.7637
 21
48.7578
  0
LINE
  8
0
 10
28.7637
 20
48.7578
 11
14.7627
 21
48.7578
  0
LINE
  8
0
 10
40.958
 20
48.7578
 11
40.958
 21
62.7578
  0
LINE
  8
0
 10
40.958
 20
62.7578
 11
54.957
 21
62.7578
  0
LINE
  8
0
 10
54.957
 20
62.7578
 11
54.957
 21
48.7578
  0
LINE
  8
0
 10
54.957
 20
48.7578
 11
40.958
 21
48.7578
  0
LINE
  8
0
 10
60.0078
 20
48.7578
 11
60.0078
 21
62.7578
  0
LINE
  8
0
 10
60.0078
 20
62.7578
 11
74.0078
 21
62.7578
  0
LINE
  8
0
 10
74.0078
 20
62.7578
 11
74.0078
 21
48.7578
  0
LINE
  8
0
 10
74.0078
 20
48.7578
 11
60.0078
 21
48.7578
  0
LINE
  8
0
 10
79.0586
 20
48.7578
 11
79.0586
 21
62.7578
  0
LINE
  8
0
 10
79.0586
 20
62.7578
 11
93.0576
 21
62.7578
  0
LINE
  8
0
 10
93.0576
 20
62.7578
 11
93.0576
 21
48.7578
  0
LINE
  8
0
 10
93.0576
 20
48.7578
 11
79.0586
 21
48.7578
  0
LINE
  8
0
 10
117.158
 20
48.7578
 11
117.158
 21
62.7578
  0
LINE
  8
0
 10
117.158
 20
62.7578
 11
131.157
 21
62.7578
  0
LINE
  8
0
 10
131.157
 20
62.7578
 11
131.157
 21
48.7578
  0
LINE
  8
0
 10
131.157
 20
48.7578
 11
117.158
 21
48.7578
  0
LINE
  8
0
 10
136.208
 20
48.7578
 11
136.208
 21
62.7578
  0
LINE
  8
0
 10
136.208
 20
62.7578
 11
150.207
 21
62.7578
  0
LINE
  8
0
 10
150.207
 20
62.7578
 11
150.207
 21
48.7578
  0
LINE
  8
0
 10
150.207
 20
48.7578
 11
136.208
 21
48.7578
  0
LINE
  8
0
 10
155.258
 20
48.7578
 11
155.258
 21
62.7578
  0
LINE
  8
0
 10
155.258
 20
62.7578
 11
169.257
 21
62.7578
  0
LINE
  8
0
 10
169.257
 20
62.7578
 11
169.257
 21
48.7578
  0
LINE
  8
0
 10
169.257
 20
48.7578
 11
155.258
 21
48.7578
  0
LINE
  8
0
 10
174.308
 20
48.7578
 11
174.308
 21
62.7578
  0
LINE
  8
0
 10
174.308
 20
62.7578
 11
188.307
 21
62.7578
  0
LINE
  8
0
 10
188.307
 20
62.7578
 11
188.307
 21
48.7578
  0
LINE
  8
0
 10
188.307
 20
48.7578
 11
174.308
 21
48.7578
  0
LINE
  8
0
 10
193.358
 20
48.7578
 11
193.358
 21
62.7578
  0
LINE
  8
0
 10
193.358
 20
62.7578
 11
207.357
 21
62.7578
  0
LINE
  8
0
 10
207.357
 20
62.7578
 11
207.357
 21
48.7578
  0
LINE
  8
0
 10
207.357
 20
48.7578
 11
193.358
 21
48.7578
  0
LINE
  8
0
 10
212.408
 20
48.7578
 11
212.408
 21
62.7578
  0
LINE
  8
0
 10
212.408
 20
62.7578
 11
226.407
 21
62.7578
  0
LINE
  8
0
 10
226.407
 20
62.7578
 11
226.407
 21
48.7578
  0
LINE
  8
0
 10
226.407
 20
48.7578
 11
212.408
 21
48.7578
  0
LINE
  8
0
 10
231.458
 20
48.7578
 11
231.458
 21
62.7578
  0
LINE
  8
0
 10
231.458
 20
62.7578
 11
245.457
 21
62.7578
  0
LINE
  8
0
 10
245.457
 20
62.7578
 11
245.457
 21
48.7578
  0
LINE
  8
0
 10
245.457
 20
48.7578
 11
231.458
 21
48.7578
  0
LINE
  8
0
 10
257.652
 20
48.7578
 11
257.652
 21
62.7578
  0
LINE
  8
0
 10
257.652
 20
62.7578
 11
271.651
 21
62.7578
  0
LINE
  8
0
 10
271.651
 20
62.7578
 11
271.651
 21
48.7578
  0
LINE
  8
0
 10
271.651
 20
48.7578
 11
257.652
 21
48.7578
  0
LINE
  8
0
 10
98.1084
 20
48.7578
 11
98.1084
 21
62.7578
  0
LINE
  8
0
 10
98.1084
 20
62.7578
 11
112.107
 21
62.7578
  0
LINE
  8
0
 10
112.107
 20
62.7578
 11
112.107
 21
48.7578
  0
LINE
  8
0
 10
112.107
 20
48.7578
 11
98.1084
 21
48.7578
  0
LINE
  8
0
 10
221.933
 20
29.708
 11
221.933
 21
43.707
  0
LINE
  8
0
 10
221.933
 20
43.707
 11
235.932
 21
43.707
  0
LINE
  8
0
 10
235.932
 20
43.707
 11
235.932
 21
29.708
  0
LINE
  8
0
 10
235.932
 20
29.708
 11
221.933
 21
29.708
  0
LINE
  8
0
 10
252.888
 20
29.708
 11
252.888
 21
43.707
  0
LINE
  8
0
 10
252.888
 20
43.707
 11
266.889
 21
43.707
  0
LINE
  8
0
 10
266.889
 20
43.707
 11
266.889
 21
29.708
  0
LINE
  8
0
 10
266.889
 20
29.708
 11
252.888
 21
29.708
  0
LINE
  8
0
 10
202.883
 20
29.708
 11
202.883
 21
43.707
  0
LINE
  8
0
 10
202.883
 20
43.707
 11
216.882
 21
43.707
  0
LINE
  8
0
 10
216.882
 20
43.707
 11
216.882
 21
29.708
  0
LINE
  8
0
 10
216.882
 20
29.708
 11
202.883
 21
29.708
  0
LINE
  8
0
 10
183.833
 20
29.708
 11
183.833
 21
43.707
  0
LINE
  8
0
 10
183.833
 20
43.707
 11
197.832
 21
43.707
  0
LINE
  8
0
 10
197.832
 20
43.707
 11
197.832
 21
29.708
  0
LINE
  8
0
 10
197.832
 20
29.708
 11
183.833
 21
29.708
  0
LINE
  8
0
 10
164.783
 20
29.708
 11
164.783
 21
43.707
  0
LINE
  8
0
 10
164.783
 20
43.707
 11
178.782
 21
43.707
  0
LINE
  8
0
 10
178.782
 20
43.707
 11
178.782
 21
29.708
  0
LINE
  8
0
 10
178.782
 20
29.708
 11
164.783
 21
29.708
  0
LINE
  8
0
 10
145.733
 20
29.708
 11
145.733
 21
43.707
  0
LINE
  8
0
 10
145.733
 20
43.707
 11
159.732
 21
43.707
  0
LINE
  8
0
 10
159.732
 20
43.707
 11
159.732
 21
29.708
  0
LINE
  8
0
 10
159.732
 20
29.708
 11
145.733
 21
29.708
  0
LINE
  8
0
 10
107.633
 20
29.708
 11
107.633
 21
43.707
  0
LINE
  8
0
 10
107.633
 20
43.707
 11
121.632
 21
43.707
  0
LINE
  8
0
 10
121.632
 20
43.707
 11
121.632
 21
29.708
  0
LINE
  8
0
 10
121.632
 20
29.708
 11
107.633
 21
29.708
  0
LINE
  8
0
 10
88.583
 20
29.708
 11
88.583
 21
43.707
  0
LINE
  8
0
 10
88.583
 20
43.707
 11
102.582
 21
43.707
  0
LINE
  8
0
 10
102.582
 20
43.707
 11
102.582
 21
29.708
  0
LINE
  8
0
 10
102.582
 20
29.708
 11
88.583
 21
29.708
  0
LINE
  8
0
 10
69.5332
 20
29.708
 11
69.5332
 21
43.707
  0
LINE
  8
0
 10
69.5332
 20
43.707
 11
83.5322
 21
43.707
  0
LINE
  8
0
 10
83.5322
 20
43.707
 11
83.5322
 21
29.708
  0
LINE
  8
0
 10
83.5322
 20
29.708
 11
69.5332
 21
29.708
  0
LINE
  8
0
 10
50.4834
 20
29.708
 11
50.4834
 21
43.707
  0
LINE
  8
0
 10
50.4834
 20
43.707
 11
64.4824
 21
43.707
  0
LINE
  8
0
 10
64.4824
 20
43.707
 11
64.4824
 21
29.708
  0
LINE
  8
0
 10
64.4824
 20
29.708
 11
50.4834
 21
29.708
  0
LINE
  8
0
 10
19.5264
 20
29.708
 11
19.5264
 21
43.707
  0
LINE
  8
0
 10
19.5264
 20
43.707
 11
33.5264
 21
43.707
  0
LINE
  8
0
 10
33.5264
 20
43.707
 11
33.5264
 21
29.708
  0
LINE
  8
0
 10
33.5264
 20
29.708
 11
19.5264
 21
29.708
  0
LINE
  8
0
 10
126.683
 20
29.708
 11
126.683
 21
43.707
  0
LINE
  8
0
 10
126.683
 20
43.707
 11
140.682
 21
43.707
  0
LINE
  8
0
 10
140.682
 20
43.707
 11
140.682
 21
29.708
  0
LINE
  8
0
 10
140.682
 20
29.708
 11
126.683
 21
29.708
  0
LINE
  8
0
 10
12.9766
 20
28.957
 11
12.9766
 21
43.1572
  0
LINE
  8
0
 10
12.9766
 20
43.1572
 11
16.2764
 21
43.1572
  0
LINE
  8
0
 10
16.2764
 20
43.1572
 11
16.2764
 21
28.957
  0
LINE
  8
0
 10
16.2764
 20
28.957
 11
12.9766
 21
28.957
  0
LINE
  8
0
 10
36.7773
 20
28.957
 11
36.7773
 21
43.1572
  0
LINE
  8
0
 10
36.7773
 20
43.1572
 11
40.0762
 21
43.1572
  0
LINE
  8
0
 10
40.0762
 20
43.1572
 11
40.0762
 21
28.957
  0
LINE
  8
0
 10
40.0762
 20
28.957
 11
36.7773
 21
28.957
  0
LINE
  8
0
 10
246.338
 20
28.957
 11
246.338
 21
43.1572
  0
LINE
  8
0
 10
246.338
 20
43.1572
 11
249.639
 21
43.1572
  0
LINE
  8
0
 10
249.639
 20
43.1572
 11
249.639
 21
28.957
  0
LINE
  8
0
 10
249.639
 20
28.957
 11
246.338
 21
28.957
  0
LINE
  8
0
 10
270.138
 20
28.957
 11
270.138
 21
43.1572
  0
LINE
  8
0
 10
270.138
 20
43.1572
 11
273.439
 21
43.1572
  0
LINE
  8
0
 10
273.439
 20
43.1572
 11
273.439
 21
28.957
  0
LINE
  8
0
 10
273.439
 20
28.957
 11
270.138
 21
28.957
  0
LINE
  8
0
 10
33.8125
 20
10.6572
 11
33.8125
 21
24.6572
  0
LINE
  8
0
 10
33.8125
 20
24.6572
 11
47.8135
 21
24.6572
  0
LINE
  8
0
 10
47.8135
 20
24.6572
 11
47.8135
 21
10.6572
  0
LINE
  8
0
 10
47.8135
 20
10.6572
 11
33.8125
 21
10.6572
  0
LINE
  8
0
 10
262.413
 20
10.6572
 11
262.413
 21
24.6572
  0
LINE
  8
0
 10
262.413
 20
24.6572
 11
276.414
 21
24.6572
  0
LINE
  8
0
 10
276.414
 20
24.6572
 11
276.414
 21
10.6572
  0
LINE
  8
0
 10
276.414
 20
10.6572
 11
262.413
 21
10.6572
  0
LINE
  8
0
 10
238.602
 20
10.6572
 11
238.602
 21
24.6572
  0
LINE
  8
0
 10
238.602
 20
24.6572
 11
252.6
 21
24.6572
  0
LINE
  8
0
 10
252.6
 20
24.6572
 11
252.6
 21
10.6572
  0
LINE
  8
0
 10
252.6
 20
10.6572
 11
238.602
 21
10.6572
  0
LINE
  8
0
 10
214.788
 20
10.6572
 11
214.788
 21
24.6572
  0
LINE
  8
0
 10
214.788
 20
24.6572
 11
228.789
 21
24.6572
  0
LINE
  8
0
 10
228.789
 20
24.6572
 11
228.789
 21
10.6572
  0
LINE
  8
0
 10
228.789
 20
10.6572
 11
214.788
 21
10.6572
  0
LINE
  8
0
 10
136.303
 20
10.6572
 11
136.303
 21
24.6572
  0
LINE
  8
0
 10
136.303
 20
24.6572
 11
150.303
 21
24.6572
  0
LINE
  8
0
 10
150.303
 20
24.6572
 11
150.303
 21
10.6572
  0
LINE
  8
0
 10
150.303
 20
10.6572
 11
136.303
 21
10.6572
  0
LINE
  8
0
 10
57.627
 20
10.6572
 11
57.627
 21
24.6572
  0
LINE
  8
0
 10
57.627
 20
24.6572
 11
71.626
 21
24.6572
  0
LINE
  8
0
 10
71.626
 20
24.6572
 11
71.626
 21
10.6572
  0
LINE
  8
0
 10
71.626
 20
10.6572
 11
57.627
 21
10.6572
  0
LINE
  8
0
 10
10.002
 20
10.6572
 11
10.002
 21
24.6572
  0
LINE
  8
0
 10
10.002
 20
24.6572
 11
24.001
 21
24.6572
  0
LINE
  8
0
 10
24.001
 20
24.6572
 11
24.001
 21
10.6572
  0
LINE
  8
0
 10
24.001
 20
10.6572
 11
10.002
 21
10.6572
  0
LINE
  8
0
 10
91.6523
 20
9.90625
 11
91.6523
 21
24.1084
  0
LINE
  8
0
 10
91.6523
 20
24.1084
 11
94.9521
 21
24.1084
  0
LINE
  8
0
 10
94.9521
 20
24.1084
 11
94.9521
 21
9.90625
  0
LINE
  8
0
 10
94.9521
 20
9.90625
 11
91.6523
 21
9.90625
  0
LINE
  8
0
 10
191.652
 20
9.90625
 11
191.652
 21
24.1084
  0
LINE
  8
0
 10
191.652
 20
24.1084
 11
194.952
 21
24.1084
  0
LINE
  8
0
 10
194.952
 20
24.1084
 11
194.952
 21
9.90625
  0
LINE
  8
0
 10
194.952
 20
9.90625
 11
191.652
 21
9.90625
  0
LINE
  8
0
 10
3.63086
 20
2.70508
 11
3.21387
 21
2.91895
  0
LINE
  8
0
 10
3.21387
 20
2.91895
 11
2.88184
 21
3.25098
  0
LINE
  8
0
 10
2.88184
 20
3.25098
 11
2.66797
 21
3.66797
  0
LINE
  8
0
 10
2.66797
 20
3.66797
 11
2.59473
 21
4.13281
  0
LINE
  8
0
 10
2.59473
 20
4.13281
 11
2.66797
 21
4.5957
  0
LINE
  8
0
 10
2.66797
 20
4.5957
 11
2.88184
 21
5.01367
  0
LINE
  8
0
 10
2.88184
 20
5.01367
 11
3.21387
 21
5.3457
  0
LINE
  8
0
 10
3.21387
 20
5.3457
 11
3.63086
 21
5.55762
  0
LINE
  8
0
 10
3.63086
 20
5.55762
 11
4.0957
 21
5.63184
  0
LINE
  8
0
 10
4.0957
 20
5.63184
 11
4.55859
 21
5.55762
  0
LINE
  8
0
 10
4.55859
 20
5.55762
 11
4.97656
 21
5.3457
  0
LINE
  8
0
 10
4.97656
 20
5.3457
 11
5.30859
 21
5.01367
  0
LINE
  8
0
 10
5.30859
 20
5.01367
 11
5.52148
 21
4.5957
  0
LINE
  8
0
 10
5.52148
 20
4.5957
 11
5.59473
 21
4.13281
  0
LINE
  8
0
 10
5.59473
 20
4.13281
 11
5.52148
 21
3.66797
  0
LINE
  8
0
 10
5.52148
 20
3.66797
 11
5.30859
 21
3.25098
  0
LINE
  8
0
 10
5.30859
 20
3.25098
 11
4.97656
 21
2.91895
  0
LINE
  8
0
 10
4.97656
 20
2.91895
 11
4.55859
 21
2.70508
  0
LINE
  8
0
 10
4.55859
 20
2.70508
 11
4.0957
 21
2.63184
  0
LINE
  8
0
 10
4.0957
 20
2.63184
 11
3.63086
 21
2.70508
  0
LINE
  8
0
 10
96.373
 20
2.70508
 11
95.9561
 21
2.91895
  0
LINE
  8
0
 10
95.9561
 20
2.91895
 11
95.624
 21
3.25098
  0
LINE
  8
0
 10
95.624
 20
3.25098
 11
95.4102
 21
3.66797
  0
LINE
  8
0
 10
95.4102
 20
3.66797
 11
95.3369
 21
4.13281
  0
LINE
  8
0
 10
95.3369
 20
4.13281
 11
95.4102
 21
4.5957
  0
LINE
  8
0
 10
95.4102
 20
4.5957
 11
95.624
 21
5.01367
  0
LINE
  8
0
 10
95.624
 20
5.01367
 11
95.9561
 21
5.3457
  0
LINE
  8
0
 10
95.9561
 20
5.3457
 11
96.373
 21
5.55762
  0
LINE
  8
0
 10
96.373
 20
5.55762
 11
96.8379
 21
5.63184
  0
LINE
  8
0
 10
96.8379
 20
5.63184
 11
97.3008
 21
5.55762
  0
LINE
  8
0
 10
97.3008
 20
5.55762
 11
97.7178
 21
5.3457
  0
LINE
  8
0
 10
97.7178
 20
5.3457
 11
98.0508
 21
5.01367
  0
LINE
  8
0
 10
98.0508
 20
5.01367
 11
98.2637
 21
4.5957
  0
LINE
  8
0
 10
98.2637
 20
4.5957
 11
98.3369
 21
4.13281
  0
LINE
  8
0
 10
98.3369
 20
4.13281
 11
98.2637
 21
3.66797
  0
LINE
  8
0
 10
98.2637
 20
3.66797
 11
98.0508
 21
3.25098
  0
LINE
  8
0
 10
98.0508
 20
3.25098
 11
97.7178
 21
2.91895
  0
LINE
  8
0
 10
97.7178
 20
2.91895
 11
97.3008
 21
2.70508
  0
LINE
  8
0
 10
97.3008
 20
2.70508
 11
96.8379
 21
2.63184
  0
LINE
  8
0
 10
96.8379
 20
2.63184
 11
96.373
 21
2.70508
  0
LINE
  8
0
 10
189.115
 20
2.70508
 11
188.698
 21
2.91895
  0
LINE
  8
0
 10
188.698
 20
2.91895
 11
188.365
 21
3.25098
  0
LINE
  8
0
 10
188.365
 20
3.25098
 11
188.152
 21
3.66797
  0
LINE
  8
0
 10
188.152
 20
3.66797
 11
188.08
 21
4.13281
  0
LINE
  8
0
 10
188.08
 20
4.13281
 11
188.152
 21
4.5957
  0
LINE
  8
0
 10
188.152
 20
4.5957
 11
188.365
 21
5.01367
  0
LINE
  8
0
 10
188.365
 20
5.01367
 11
188.698
 21
5.3457
  0
LINE
  8
0
 10
188.698
 20
5.3457
 11
189.115
 21
5.55762
  0
LINE
  8
0
 10
189.115
 20
5.55762
 11
189.58
 21
5.63184
  0
LINE
  8
0
 10
189.58
 20
5.63184
 11
190.042
 21
5.55762
  0
LINE
  8
0
 10
190.042
 20
5.55762
 11
190.46
 21
5.3457
  0
LINE
  8
0
 10
190.46
 20
5.3457
 11
190.792
 21
5.01367
  0
LINE
  8
0
 10
190.792
 20
5.01367
 11
191.006
 21
4.5957
  0
LINE
  8
0
 10
191.006
 20
4.5957
 11
191.08
 21
4.13281
  0
LINE
  8
0
 10
191.08
 20
4.13281
 11
191.006
 21
3.66797
  0
LINE
  8
0
 10
191.006
 20
3.66797
 11
190.792
 21
3.25098
  0
LINE
  8
0
 10
190.792
 20
3.25098
 11
190.46
 21
2.91895
  0
LINE
  8
0
 10
190.46
 20
2.91895
 11
190.042
 21
2.70508
  0
LINE
  8
0
 10
190.042
 20
2.70508
 11
189.58
 21
2.63184
  0
LINE
  8
0
 10
189.58
 20
2.63184
 11
189.115
 21
2.70508
  0
LINE
  8
0
 10
281.857
 20
2.70508
 11
281.439
 21
2.91895
  0
LINE
  8
0
 10
281.439
 20
2.91895
 11
281.107
 21
3.25098
  0
LINE
  8
0
 10
281.107
 20
3.25098
 11
280.894
 21
3.66797
  0
LINE
  8
0
 10
280.894
 20
3.66797
 11
280.822
 21
4.13281
  0
LINE
  8
0
 10
280.822
 20
4.13281
 11
280.894
 21
4.5957
  0
LINE
  8
0
 10
280.894
 20
4.5957
 11
281.107
 21
5.01367
  0
LINE
  8
0
 10
281.107
 20
5.01367
 11
281.439
 21
5.3457
  0
LINE
  8
0
 10
281.439
 20
5.3457
 11
281.857
 21
5.55762
  0
LINE
  8
0
 10
281.857
 20
5.55762
 11
282.321
 21
5.63184
  0
LINE
  8
0
 10
282.321
 20
5.63184
 11
282.785
 21
5.55762
  0
LINE
  8
0
 10
282.785
 20
5.55762
 11
283.202
 21
5.3457
  0
LINE
  8
0
 10
283.202
 20
5.3457
 11
283.534
 21
5.01367
  0
LINE
  8
0
 10
283.534
 20
5.01367
 11
283.748
 21
4.5957
  0
LINE
  8
0
 10
283.748
 20
4.5957
 11
283.822
 21
4.13281
  0
LINE
  8
0
 10
283.822
 20
4.13281
 11
283.748
 21
3.66797
  0
LINE
  8
0
 10
283.748
 20
3.66797
 11
283.534
 21
3.25098
  0
LINE
  8
0
 10
283.534
 20
3.25098
 11
283.202
 21
2.91895
  0
LINE
  8
0
 10
283.202
 20
2.91895
 11
282.785
 21
2.70508
  0
LINE
  8
0
 10
282.785
 20
2.70508
 11
282.321
 21
2.63184
  0
LINE
  8
0
 10
282.321
 20
2.63184
 11
281.857
 21
2.70508
  0
ENDSEC
  0
SECTION
  2
OBJECTS
  0
DICTIONARY
  0
ENDSEC
  0
EOF
