<?xml version="1.0" standalone="no"?>
<!DOCTYPE svg PUBLIC "-//W3C//DTD SVG 1.1//EN" "http://www.w3.org/Graphics/SVG/1.1/DTD/svg11.dtd">
<svg width="289mm" height="112mm" viewBox="0 -112 289 112" xmlns="http://www.w3.org/2000/svg" version="1.1">
<title>OpenSCAD Model</title>
<path d="
M 285.557,-0.141602 L 285.79,-0.167969 L 286.022,-0.214844 L 286.249,-0.27832 L 286.469,-0.359375 L 286.683,-0.458984
 L 286.888,-0.574219 L 287.084,-0.704102 L 287.27,-0.850586 L 287.442,-1.00977 L 287.602,-1.18359 L 287.748,-1.36816
 L 287.879,-1.56445 L 287.995,-1.77051 L 288.093,-1.9834 L 288.174,-2.20508 L 288.239,-2.43066 L 288.284,-2.66211
 L 288.312,-2.89648 L 288.321,-3.13184 L 288.321,-108.383 L 288.312,-108.619 L 288.284,-108.853 L 288.239,-109.083
 L 288.174,-109.31 L 288.093,-109.53 L 287.995,-109.744 L 287.879,-109.951 L 287.748,-110.147 L 287.602,-110.331
 L 287.442,-110.505 L 287.27,-110.665 L 287.084,-110.811 L 286.888,-110.94 L 286.683,-111.056 L 286.469,-111.154
 L 286.249,-111.236 L 286.022,-111.3 L 285.79,-111.347 L 285.557,-111.373 L 285.321,-111.383 L 3.09473,-111.383
 L 2.85938,-111.373 L 2.625,-111.347 L 2.39551,-111.3 L 2.16797,-111.236 L 1.94727,-111.154 L 1.7334,-111.056
 L 1.52734,-110.94 L 1.33105,-110.811 L 1.14648,-110.665 L 0.972656,-110.505 L 0.813477,-110.331 L 0.666992,-110.147
 L 0.537109,-109.951 L 0.421875,-109.744 L 0.324219,-109.53 L 0.241211,-109.31 L 0.177734,-109.083 L 0.130859,-108.853
 L 0.104492,-108.619 L 0.0947266,-108.383 L 0.0947266,-3.13184 L 0.104492,-2.89648 L 0.130859,-2.66211 L 0.177734,-2.43066
 L 0.241211,-2.20508 L 0.324219,-1.9834 L 0.421875,-1.77051 L 0.537109,-1.56445 L 0.666992,-1.36816 L 0.813477,-1.18359
 L 0.972656,-1.00977 L 1.14648,-0.850586 L 1.33105,-0.704102 L 1.52734,-0.574219 L 1.7334,-0.458984 L 1.94727,-0.359375
 L 2.16797,-0.27832 L 2.39551,-0.214844 L 2.625,-0.167969 L 2.85938,-0.141602 L 3.09473,-0.131836 L 285.321,-0.130859
 z
M 283.858,-105.956 L 283.439,-106.17 L 283.107,-106.502 L 282.895,-106.919 L 282.822,-107.382 L 282.895,-107.847
 L 283.107,-108.264 L 283.439,-108.596 L 283.858,-108.81 L 284.321,-108.883 L 284.784,-108.81 L 285.203,-108.596
 L 285.535,-108.264 L 285.747,-107.847 L 285.822,-107.382 L 285.747,-106.919 L 285.535,-106.502 L 285.203,-106.17
 L 284.784,-105.956 L 284.321,-105.883 z
M 190.449,-105.956 L 190.03,-106.17 L 189.698,-106.502 L 189.486,-106.919 L 189.413,-107.382 L 189.486,-107.847
 L 189.698,-108.264 L 190.03,-108.596 L 190.449,-108.81 L 190.912,-108.883 L 191.375,-108.81 L 191.794,-108.596
 L 192.126,-108.264 L 192.338,-107.847 L 192.413,-107.382 L 192.338,-106.919 L 192.126,-106.502 L 191.794,-106.17
 L 191.375,-105.956 L 190.912,-105.883 z
M 97.04,-105.956 L 96.6211,-106.17 L 96.29,-106.502 L 96.0771,-106.919 L 96.0039,-107.382 L 96.0771,-107.847
 L 96.29,-108.264 L 96.6211,-108.596 L 97.04,-108.81 L 97.5029,-108.883 L 97.9678,-108.81 L 98.3848,-108.596
 L 98.7168,-108.264 L 98.9307,-107.847 L 99.0039,-107.382 L 98.9307,-106.919 L 98.7168,-106.502 L 98.3848,-106.17
 L 97.9678,-105.956 L 97.5029,-105.883 z
M 3.63086,-105.956 L 3.21387,-106.17 L 2.88184,-106.502 L 2.66797,-106.919 L 2.59473,-107.382 L 2.66797,-107.847
 L 2.88184,-108.264 L 3.21387,-108.596 L 3.63086,-108.81 L 4.0957,-108.883 L 4.55859,-108.81 L 4.97656,-108.596
 L 5.30859,-108.264 L 5.52148,-107.847 L 5.59473,-107.382 L 5.52148,-106.919 L 5.30859,-106.502 L 4.97656,-106.17
 L 4.55859,-105.956 L 4.0957,-105.883 z
M 27.6709,-86.8574 L 27.6709,-100.858 L 41.6709,-100.858 L 41.6709,-86.8574 z
M 8.62012,-86.8574 L 8.62012,-100.858 L 22.6201,-100.858 L 22.6201,-86.8574 z
M 46.7217,-86.8574 L 46.7217,-100.858 L 60.7207,-100.858 L 60.7207,-86.8574 z
M 65.7715,-86.8574 L 65.7715,-100.858 L 79.7705,-100.858 L 79.7705,-86.8574 z
M 84.8213,-86.8574 L 84.8213,-100.858 L 98.8203,-100.858 L 98.8203,-86.8574 z
M 103.87,-86.8574 L 103.87,-100.858 L 117.869,-100.858 L 117.869,-86.8574 z
M 122.92,-86.8574 L 122.92,-100.858 L 136.92,-100.858 L 136.92,-86.8574 z
M 161.021,-86.8574 L 161.021,-100.858 L 175.02,-100.858 L 175.02,-86.8574 z
M 180.071,-86.8574 L 180.071,-100.858 L 194.07,-100.858 L 194.07,-86.8574 z
M 199.121,-86.8574 L 199.121,-100.858 L 213.12,-100.858 L 213.12,-86.8574 z
M 218.171,-86.8574 L 218.171,-100.858 L 232.17,-100.858 L 232.17,-86.8574 z
M 141.971,-86.8574 L 141.971,-100.858 L 155.97,-100.858 L 155.97,-86.8574 z
M 237.221,-86.8574 L 237.221,-100.858 L 251.22,-100.858 L 251.22,-86.8574 z
M 261.032,-86.8574 L 261.032,-100.858 L 275.033,-100.858 L 275.033,-86.8574 z
M 13.3818,-67.8076 L 13.3818,-81.8076 L 27.3828,-81.8076 L 27.3828,-67.8076 z
M 37.1963,-67.8076 L 37.1963,-81.8076 L 51.1953,-81.8076 L 51.1953,-67.8076 z
M 56.2461,-67.8076 L 56.2461,-81.8076 L 70.2451,-81.8076 L 70.2451,-67.8076 z
M 75.2959,-67.8076 L 75.2959,-81.8076 L 89.2959,-81.8076 L 89.2959,-67.8076 z
M 94.3467,-67.8076 L 94.3467,-81.8076 L 108.345,-81.8076 L 108.345,-67.8076 z
M 113.396,-67.8076 L 113.396,-81.8076 L 127.395,-81.8076 L 127.395,-67.8076 z
M 132.446,-67.8076 L 132.446,-81.8076 L 146.445,-81.8076 L 146.445,-67.8076 z
M 151.496,-67.8076 L 151.496,-81.8076 L 165.495,-81.8076 L 165.495,-67.8076 z
M 170.546,-67.8076 L 170.546,-81.8076 L 184.545,-81.8076 L 184.545,-67.8076 z
M 189.596,-67.8076 L 189.596,-81.8076 L 203.595,-81.8076 L 203.595,-67.8076 z
M 208.646,-67.8076 L 208.646,-81.8076 L 222.645,-81.8076 L 222.645,-67.8076 z
M 227.696,-67.8076 L 227.696,-81.8076 L 241.695,-81.8076 L 241.695,-67.8076 z
M 246.746,-67.8076 L 246.746,-81.8076 L 260.745,-81.8076 L 260.745,-67.8076 z
M 265.796,-67.8076 L 265.796,-81.8076 L 279.795,-81.8076 L 279.795,-67.8076 z
M 256.271,-48.7578 L 256.271,-62.7578 L 270.27,-62.7578 L 270.27,-48.7578 z
M 213.407,-48.7578 L 213.407,-62.7578 L 227.408,-62.7578 L 227.408,-48.7578 z
M 232.457,-48.7578 L 232.457,-62.7578 L 246.458,-62.7578 L 246.458,-48.7578 z
M 18.1465,-48.7578 L 18.1465,-62.7578 L 32.1455,-62.7578 L 32.1455,-48.7578 z
M 41.957,-48.7578 L 41.957,-62.7578 L 55.958,-62.7578 L 55.958,-48.7578 z
M 61.0068,-48.7578 L 61.0068,-62.7578 L 75.0078,-62.7578 L 75.0078,-48.7578 z
M 80.0576,-48.7578 L 80.0576,-62.7578 L 94.0576,-62.7578 L 94.0576,-48.7578 z
M 99.1074,-48.7578 L 99.1074,-62.7578 L 113.108,-62.7578 L 113.108,-48.7578 z
M 118.157,-48.7578 L 118.157,-62.7578 L 132.158,-62.7578 L 132.158,-48.7578 z
M 137.207,-48.7578 L 137.207,-62.7578 L 151.208,-62.7578 L 151.208,-48.7578 z
M 156.257,-48.7578 L 156.257,-62.7578 L 170.258,-62.7578 L 170.258,-48.7578 z
M 175.307,-48.7578 L 175.307,-62.7578 L 189.308,-62.7578 L 189.308,-48.7578 z
M 194.357,-48.7578 L 194.357,-62.7578 L 208.358,-62.7578 L 208.358,-48.7578 z
M 27.6709,-29.708 L 27.6709,-43.707 L 41.6709,-43.707 L 41.6709,-29.708 z
M 51.4824,-29.708 L 51.4824,-43.707 L 65.4834,-43.707 L 65.4834,-29.708 z
M 70.5322,-29.708 L 70.5322,-43.707 L 84.5332,-43.707 L 84.5332,-29.708 z
M 184.832,-29.708 L 184.832,-43.707 L 198.833,-43.707 L 198.833,-29.708 z
M 89.582,-29.708 L 89.582,-43.707 L 103.583,-43.707 L 103.583,-29.708 z
M 108.632,-29.708 L 108.632,-43.707 L 122.633,-43.707 L 122.633,-29.708 z
M 127.682,-29.708 L 127.682,-43.707 L 141.683,-43.707 L 141.683,-29.708 z
M 146.732,-29.708 L 146.732,-43.707 L 160.733,-43.707 L 160.733,-29.708 z
M 165.782,-29.708 L 165.782,-43.707 L 179.783,-43.707 L 179.783,-29.708 z
M 203.882,-29.708 L 203.882,-43.707 L 217.883,-43.707 L 217.883,-29.708 z
M 222.932,-29.708 L 222.932,-43.707 L 236.933,-43.707 L 236.933,-29.708 z
M 246.746,-29.708 L 246.746,-43.707 L 260.745,-43.707 L 260.745,-29.708 z
M 137.302,-10.6572 L 137.302,-24.6572 L 151.303,-24.6572 L 151.303,-10.6572 z
M 192.653,-9.90625 L 192.653,-24.1084 L 195.953,-24.1084 L 195.953,-9.90625 z
M 92.6523,-9.90625 L 92.6523,-24.1084 L 95.9531,-24.1084 L 95.9531,-9.90625 z
M 283.858,-2.70508 L 283.439,-2.91895 L 283.107,-3.25098 L 282.895,-3.66797 L 282.822,-4.13281 L 282.895,-4.5957
 L 283.107,-5.01367 L 283.439,-5.3457 L 283.858,-5.55762 L 284.321,-5.63184 L 284.784,-5.55762 L 285.203,-5.3457
 L 285.535,-5.01367 L 285.747,-4.5957 L 285.822,-4.13281 L 285.747,-3.66797 L 285.535,-3.25098 L 285.203,-2.91895
 L 284.784,-2.70508 L 284.321,-2.63184 z
M 190.449,-2.70508 L 190.03,-2.91895 L 189.698,-3.25098 L 189.486,-3.66797 L 189.413,-4.13281 L 189.486,-4.5957
 L 189.698,-5.01367 L 190.03,-5.3457 L 190.449,-5.55762 L 190.912,-5.63184 L 191.375,-5.55762 L 191.794,-5.3457
 L 192.126,-5.01367 L 192.338,-4.5957 L 192.413,-4.13281 L 192.338,-3.66797 L 192.126,-3.25098 L 191.794,-2.91895
 L 191.375,-2.70508 L 190.912,-2.63184 z
M 97.04,-2.70508 L 96.6211,-2.91895 L 96.29,-3.25098 L 96.0771,-3.66797 L 96.0039,-4.13281 L 96.0771,-4.5957
 L 96.29,-5.01367 L 96.6211,-5.3457 L 97.04,-5.55762 L 97.5029,-5.63184 L 97.9678,-5.55762 L 98.3848,-5.3457
 L 98.7168,-5.01367 L 98.9307,-4.5957 L 99.0039,-4.13281 L 98.9307,-3.66797 L 98.7168,-3.25098 L 98.3848,-2.91895
 L 97.9678,-2.70508 L 97.5029,-2.63184 z
M 3.63086,-2.70508 L 3.21387,-2.91895 L 2.88184,-3.25098 L 2.66797,-3.66797 L 2.59473,-4.13281 L 2.66797,-4.5957
 L 2.88184,-5.01367 L 3.21387,-5.3457 L 3.63086,-5.55762 L 4.0957,-5.63184 L 4.55859,-5.55762 L 4.97656,-5.3457
 L 5.30859,-5.01367 L 5.52148,-4.5957 L 5.59473,-4.13281 L 5.52148,-3.66797 L 5.30859,-3.25098 L 4.97656,-2.91895
 L 4.55859,-2.70508 L 4.0957,-2.63184 z
" stroke="black" fill="lightgray" stroke-width="0.5"/>
</svg>
