<?xml version="1.0" standalone="no"?>
<!DOCTYPE svg PUBLIC "-//W3C//DTD SVG 1.1//EN" "http://www.w3.org/Graphics/SVG/1.1/DTD/svg11.dtd">
<svg width="241mm" height="93mm" viewBox="0 -93 241 93" xmlns="http://www.w3.org/2000/svg" version="1.1">
<title>OpenSCAD Model</title>
<path d="
M 237.932,-0.141602 L 238.165,-0.167969 L 238.397,-0.214844 L 238.624,-0.27832 L 238.844,-0.359375 L 239.058,-0.458984
 L 239.263,-0.574219 L 239.459,-0.704102 L 239.645,-0.850586 L 239.817,-1.00977 L 239.977,-1.18359 L 240.123,-1.36816
 L 240.254,-1.56445 L 240.37,-1.77051 L 240.468,-1.9834 L 240.549,-2.20508 L 240.614,-2.43066 L 240.659,-2.66211
 L 240.687,-2.89648 L 240.696,-3.13086 L 240.696,-89.333 L 240.687,-89.5684 L 240.659,-89.8027 L 240.614,-90.0332
 L 240.549,-90.2598 L 240.468,-90.4805 L 240.37,-90.6943 L 240.254,-90.9014 L 240.123,-91.0967 L 239.977,-91.2812
 L 239.817,-91.4551 L 239.645,-91.6143 L 239.459,-91.7607 L 239.263,-91.8906 L 239.058,-92.0059 L 238.844,-92.1035
 L 238.624,-92.1865 L 238.397,-92.25 L 238.165,-92.2969 L 237.932,-92.3232 L 237.696,-92.332 L 3.09473,-92.332
 L 2.85938,-92.3232 L 2.625,-92.2969 L 2.39551,-92.25 L 2.16797,-92.1865 L 1.94727,-92.1035 L 1.7334,-92.0059
 L 1.52734,-91.8906 L 1.33105,-91.7607 L 1.14648,-91.6143 L 0.972656,-91.4551 L 0.813477,-91.2812 L 0.666992,-91.0967
 L 0.537109,-90.9014 L 0.421875,-90.6943 L 0.324219,-90.4805 L 0.241211,-90.2598 L 0.177734,-90.0332 L 0.130859,-89.8027
 L 0.104492,-89.5684 L 0.0947266,-89.333 L 0.0947266,-3.13184 L 0.104492,-2.89648 L 0.130859,-2.66211 L 0.177734,-2.43066
 L 0.241211,-2.20508 L 0.324219,-1.9834 L 0.421875,-1.77051 L 0.537109,-1.56445 L 0.666992,-1.36816 L 0.813477,-1.18359
 L 0.972656,-1.00977 L 1.14648,-0.850586 L 1.33105,-0.704102 L 1.52734,-0.574219 L 1.7334,-0.458984 L 1.94727,-0.359375
 L 2.16797,-0.27832 L 2.39551,-0.214844 L 2.625,-0.167969 L 2.85938,-0.141602 L 3.09473,-0.130859 L 237.696,-0.130859
 z
M 236.233,-86.9062 L 235.814,-87.1191 L 235.482,-87.4521 L 235.27,-87.8691 L 235.197,-88.332 L 235.27,-88.7969
 L 235.482,-89.2139 L 235.814,-89.5459 L 236.233,-89.7598 L 236.696,-89.833 L 237.159,-89.7598 L 237.578,-89.5459
 L 237.91,-89.2139 L 238.122,-88.7969 L 238.197,-88.332 L 238.122,-87.8691 L 237.91,-87.4521 L 237.578,-87.1191
 L 237.159,-86.9062 L 236.696,-86.833 z
M 3.63086,-86.9062 L 3.21387,-87.1191 L 2.88184,-87.4521 L 2.66797,-87.8691 L 2.59473,-88.332 L 2.66797,-88.7969
 L 2.88184,-89.2139 L 3.21387,-89.5459 L 3.63086,-89.7598 L 4.0957,-89.833 L 4.55859,-89.7598 L 4.97656,-89.5459
 L 5.30859,-89.2139 L 5.52148,-88.7969 L 5.59473,-88.332 L 5.52148,-87.8691 L 5.30859,-87.4521 L 4.97656,-87.1191
 L 4.55859,-86.9062 L 4.0957,-86.833 z
M 158.699,-86.9062 L 158.28,-87.1191 L 157.948,-87.4521 L 157.736,-87.8691 L 157.663,-88.332 L 157.736,-88.7969
 L 157.948,-89.2139 L 158.28,-89.5459 L 158.699,-89.7598 L 159.162,-89.833 L 159.625,-89.7598 L 160.044,-89.5459
 L 160.376,-89.2139 L 160.588,-88.7969 L 160.663,-88.332 L 160.588,-87.8691 L 160.376,-87.4521 L 160.044,-87.1191
 L 159.625,-86.9062 L 159.162,-86.833 z
M 81.165,-86.9062 L 80.7461,-87.1191 L 80.415,-87.4521 L 80.2021,-87.8691 L 80.1289,-88.332 L 80.2021,-88.7969
 L 80.415,-89.2139 L 80.7461,-89.5459 L 81.165,-89.7598 L 81.6279,-89.833 L 82.0928,-89.7598 L 82.5098,-89.5459
 L 82.8418,-89.2139 L 83.0557,-88.7969 L 83.1289,-88.332 L 83.0557,-87.8691 L 82.8418,-87.4521 L 82.5098,-87.1191
 L 82.0928,-86.9062 L 81.6279,-86.833 z
M 46.7217,-67.8076 L 46.7217,-81.8086 L 60.7207,-81.8086 L 60.7207,-67.8076 z
M 8.62012,-67.8076 L 8.62012,-81.8086 L 22.6201,-81.8086 L 22.6201,-67.8076 z
M 27.6709,-67.8076 L 27.6709,-81.8086 L 41.6709,-81.8086 L 41.6709,-67.8076 z
M 65.7715,-67.8076 L 65.7715,-81.8086 L 79.7705,-81.8086 L 79.7705,-67.8076 z
M 84.8213,-67.8076 L 84.8213,-81.8086 L 98.8203,-81.8086 L 98.8203,-67.8076 z
M 103.87,-67.8076 L 103.87,-81.8086 L 117.869,-81.8086 L 117.869,-67.8076 z
M 122.92,-67.8076 L 122.92,-81.8086 L 136.92,-81.8086 L 136.92,-67.8076 z
M 141.971,-67.8076 L 141.971,-81.8086 L 155.97,-81.8086 L 155.97,-67.8076 z
M 161.021,-67.8076 L 161.021,-81.8086 L 175.02,-81.8086 L 175.02,-67.8076 z
M 180.071,-67.8076 L 180.071,-81.8086 L 194.07,-81.8086 L 194.07,-67.8076 z
M 199.121,-67.8076 L 199.121,-81.8086 L 213.12,-81.8086 L 213.12,-67.8076 z
M 218.171,-67.8076 L 218.171,-81.8086 L 232.17,-81.8086 L 232.17,-67.8076 z
M 211.026,-48.7578 L 211.026,-62.7578 L 225.027,-62.7578 L 225.027,-48.7578 z
M 184.832,-48.7578 L 184.832,-62.7578 L 198.833,-62.7578 L 198.833,-48.7578 z
M 165.782,-48.7578 L 165.782,-62.7578 L 179.783,-62.7578 L 179.783,-48.7578 z
M 146.732,-48.7578 L 146.732,-62.7578 L 160.733,-62.7578 L 160.733,-48.7578 z
M 127.682,-48.7578 L 127.682,-62.7578 L 141.683,-62.7578 L 141.683,-48.7578 z
M 108.632,-48.7578 L 108.632,-62.7578 L 122.633,-62.7578 L 122.633,-48.7578 z
M 89.582,-48.7578 L 89.582,-62.7578 L 103.583,-62.7578 L 103.583,-48.7578 z
M 70.5322,-48.7578 L 70.5322,-62.7578 L 84.5332,-62.7578 L 84.5332,-48.7578 z
M 32.4316,-48.7578 L 32.4316,-62.7578 L 46.4326,-62.7578 L 46.4326,-48.7578 z
M 11.001,-48.7578 L 11.001,-62.7578 L 25.002,-62.7578 L 25.002,-48.7578 z
M 51.4824,-48.7578 L 51.4824,-62.7578 L 65.4834,-62.7578 L 65.4834,-48.7578 z
M 61.0068,-29.708 L 61.0068,-43.707 L 75.0078,-43.707 L 75.0078,-29.708 z
M 15.7637,-29.708 L 15.7637,-43.707 L 29.7627,-43.707 L 29.7627,-29.708 z
M 41.957,-29.708 L 41.957,-43.707 L 55.958,-43.707 L 55.958,-29.708 z
M 80.0576,-29.708 L 80.0576,-43.707 L 94.0576,-43.707 L 94.0576,-29.708 z
M 99.1074,-29.708 L 99.1074,-43.707 L 113.108,-43.707 L 113.108,-29.708 z
M 118.157,-29.708 L 118.157,-43.707 L 132.158,-43.707 L 132.158,-29.708 z
M 137.207,-29.708 L 137.207,-43.707 L 151.208,-43.707 L 151.208,-29.708 z
M 156.257,-29.708 L 156.257,-43.707 L 170.258,-43.707 L 170.258,-29.708 z
M 175.307,-29.708 L 175.307,-43.707 L 189.308,-43.707 L 189.308,-29.708 z
M 194.357,-29.708 L 194.357,-43.707 L 208.358,-43.707 L 208.358,-29.708 z
M 215.789,-29.708 L 215.789,-43.707 L 229.788,-43.707 L 229.788,-29.708 z
M 187.69,-10.6572 L 187.69,-24.6572 L 201.691,-24.6572 L 201.691,-10.6572 z
M 113.871,-10.6572 L 113.871,-24.6572 L 127.871,-24.6572 L 127.871,-10.6572 z
M 40.0527,-10.6572 L 40.0527,-24.6572 L 54.0527,-24.6572 L 54.0527,-10.6572 z
M 169.222,-9.90625 L 169.222,-24.1074 L 172.522,-24.1074 L 172.522,-9.90625 z
M 69.2217,-9.90625 L 69.2217,-24.1074 L 72.5215,-24.1074 L 72.5215,-9.90625 z
M 236.233,-2.70508 L 235.814,-2.91895 L 235.482,-3.25098 L 235.27,-3.66797 L 235.197,-4.13184 L 235.27,-4.5957
 L 235.482,-5.01367 L 235.814,-5.3457 L 236.233,-5.55762 L 236.696,-5.63086 L 237.159,-5.55762 L 237.578,-5.3457
 L 237.91,-5.01367 L 238.122,-4.5957 L 238.197,-4.13184 L 238.122,-3.66797 L 237.91,-3.25098 L 237.578,-2.91895
 L 237.159,-2.70508 L 236.696,-2.63086 z
M 158.699,-2.70508 L 158.28,-2.91895 L 157.948,-3.25098 L 157.736,-3.66797 L 157.663,-4.13184 L 157.736,-4.5957
 L 157.948,-5.01367 L 158.28,-5.3457 L 158.699,-5.55762 L 159.162,-5.63086 L 159.625,-5.55762 L 160.044,-5.3457
 L 160.376,-5.01367 L 160.588,-4.5957 L 160.663,-4.13184 L 160.588,-3.66797 L 160.376,-3.25098 L 160.044,-2.91895
 L 159.625,-2.70508 L 159.162,-2.63086 z
M 81.165,-2.70508 L 80.7461,-2.91895 L 80.415,-3.25098 L 80.2021,-3.66797 L 80.1289,-4.13184 L 80.2021,-4.5957
 L 80.415,-5.01367 L 80.7461,-5.3457 L 81.165,-5.55762 L 81.6279,-5.63086 L 82.0928,-5.55762 L 82.5098,-5.3457
 L 82.8418,-5.01367 L 83.0557,-4.5957 L 83.1289,-4.13184 L 83.0557,-3.66797 L 82.8418,-3.25098 L 82.5098,-2.91895
 L 82.0928,-2.70508 L 81.6279,-2.63086 z
M 3.63086,-2.70508 L 3.21387,-2.91895 L 2.88184,-3.25098 L 2.66797,-3.66797 L 2.59473,-4.13184 L 2.66797,-4.5957
 L 2.88184,-5.01367 L 3.21387,-5.3457 L 3.63086,-5.55762 L 4.0957,-5.63086 L 4.55859,-5.55762 L 4.97656,-5.3457
 L 5.30859,-5.01367 L 5.52148,-4.5957 L 5.59473,-4.13184 L 5.52148,-3.66797 L 5.30859,-3.25098 L 4.97656,-2.91895
 L 4.55859,-2.70508 L 4.0957,-2.63086 z
" stroke="black" fill="lightgray" stroke-width="0.5"/>
</svg>
