<?xml version="1.0" standalone="no"?>
<!DOCTYPE svg PUBLIC "-//W3C//DTD SVG 1.1//EN" "http://www.w3.org/Graphics/SVG/1.1/DTD/svg11.dtd">
<svg width="239mm" height="93mm" viewBox="0 -93 239 93" xmlns="http://www.w3.org/2000/svg" version="1.1">
<title>OpenSCAD Model</title>
<path d="
M 235.931,-0.141602 L 236.165,-0.167969 L 236.397,-0.214844 L 236.623,-0.27832 L 236.845,-0.359375 L 237.057,-0.458984
 L 237.264,-0.574219 L 237.459,-0.704102 L 237.644,-0.850586 L 237.818,-1.00977 L 237.978,-1.18359 L 238.124,-1.36816
 L 238.253,-1.56445 L 238.369,-1.77051 L 238.468,-1.9834 L 238.549,-2.20508 L 238.613,-2.43066 L 238.66,-2.66211
 L 238.686,-2.89648 L 238.697,-3.13086 L 238.697,-89.333 L 238.686,-89.5684 L 238.66,-89.8027 L 238.613,-90.0332
 L 238.549,-90.2598 L 238.468,-90.4805 L 238.369,-90.6943 L 238.253,-90.9014 L 238.124,-91.0967 L 237.978,-91.2812
 L 237.818,-91.4551 L 237.644,-91.6143 L 237.459,-91.7607 L 237.264,-91.8906 L 237.057,-92.0059 L 236.845,-92.1035
 L 236.623,-92.1865 L 236.397,-92.25 L 236.165,-92.2969 L 235.931,-92.3232 L 235.697,-92.332 L 3.09473,-92.332
 L 2.85938,-92.3232 L 2.625,-92.2969 L 2.39551,-92.25 L 2.16797,-92.1865 L 1.94727,-92.1035 L 1.7334,-92.0059
 L 1.52734,-91.8906 L 1.33105,-91.7607 L 1.14648,-91.6143 L 0.972656,-91.4551 L 0.813477,-91.2812 L 0.666992,-91.0967
 L 0.537109,-90.9014 L 0.421875,-90.6943 L 0.324219,-90.4805 L 0.241211,-90.2598 L 0.177734,-90.0332 L 0.130859,-89.8027
 L 0.104492,-89.5684 L 0.0947266,-89.333 L 0.0947266,-3.13184 L 0.104492,-2.89648 L 0.130859,-2.66211 L 0.177734,-2.43066
 L 0.241211,-2.20508 L 0.324219,-1.9834 L 0.421875,-1.77051 L 0.537109,-1.56445 L 0.666992,-1.36816 L 0.813477,-1.18359
 L 0.972656,-1.00977 L 1.14648,-0.850586 L 1.33105,-0.704102 L 1.52734,-0.574219 L 1.7334,-0.458984 L 1.94727,-0.359375
 L 2.16797,-0.27832 L 2.39551,-0.214844 L 2.625,-0.167969 L 2.85938,-0.141602 L 3.09473,-0.130859 L 235.697,-0.130859
 z
M 3.63086,-86.9062 L 3.21387,-87.1191 L 2.88184,-87.4521 L 2.66797,-87.8691 L 2.59473,-88.332 L 2.66797,-88.7969
 L 2.88184,-89.2139 L 3.21387,-89.5459 L 3.63086,-89.7598 L 4.0957,-89.833 L 4.55859,-89.7598 L 4.97656,-89.5459
 L 5.30859,-89.2139 L 5.52148,-88.7969 L 5.59473,-88.332 L 5.52148,-87.8691 L 5.30859,-87.4521 L 4.97656,-87.1191
 L 4.55859,-86.9062 L 4.0957,-86.833 z
M 234.232,-86.9062 L 233.814,-87.1191 L 233.482,-87.4521 L 233.27,-87.8691 L 233.197,-88.332 L 233.27,-88.7969
 L 233.482,-89.2139 L 233.814,-89.5459 L 234.232,-89.7598 L 234.696,-89.833 L 235.16,-89.7598 L 235.577,-89.5459
 L 235.909,-89.2139 L 236.123,-88.7969 L 236.197,-88.332 L 236.123,-87.8691 L 235.909,-87.4521 L 235.577,-87.1191
 L 235.16,-86.9062 L 234.696,-86.833 z
M 80.498,-86.9062 L 80.0811,-87.1191 L 79.749,-87.4521 L 79.5352,-87.8691 L 79.4619,-88.332 L 79.5352,-88.7969
 L 79.749,-89.2139 L 80.0811,-89.5459 L 80.498,-89.7598 L 80.9629,-89.833 L 81.4258,-89.7598 L 81.8428,-89.5459
 L 82.1758,-89.2139 L 82.3887,-88.7969 L 82.4619,-88.332 L 82.3887,-87.8691 L 82.1758,-87.4521 L 81.8428,-87.1191
 L 81.4258,-86.9062 L 80.9629,-86.833 z
M 157.365,-86.9062 L 156.948,-87.1191 L 156.615,-87.4521 L 156.402,-87.8691 L 156.33,-88.332 L 156.402,-88.7969
 L 156.615,-89.2139 L 156.948,-89.5459 L 157.365,-89.7598 L 157.83,-89.833 L 158.292,-89.7598 L 158.71,-89.5459
 L 159.042,-89.2139 L 159.256,-88.7969 L 159.33,-88.332 L 159.256,-87.8691 L 159.042,-87.4521 L 158.71,-87.1191
 L 158.292,-86.9062 L 157.83,-86.833 z
M 179.071,-67.8076 L 179.071,-81.8086 L 193.07,-81.8086 L 193.07,-67.8076 z
M 217.171,-67.8076 L 217.171,-81.8086 L 231.17,-81.8086 L 231.17,-67.8076 z
M 198.121,-67.8076 L 198.121,-81.8086 L 212.12,-81.8086 L 212.12,-67.8076 z
M 160.021,-67.8076 L 160.021,-81.8086 L 174.02,-81.8086 L 174.02,-67.8076 z
M 140.971,-67.8076 L 140.971,-81.8086 L 154.97,-81.8086 L 154.97,-67.8076 z
M 121.919,-67.8076 L 121.919,-81.8086 L 135.92,-81.8086 L 135.92,-67.8076 z
M 102.869,-67.8076 L 102.869,-81.8086 L 116.87,-81.8086 L 116.87,-67.8076 z
M 83.8203,-67.8076 L 83.8203,-81.8086 L 97.8203,-81.8086 L 97.8203,-67.8076 z
M 64.7705,-67.8076 L 64.7705,-81.8086 L 78.7695,-81.8086 L 78.7695,-67.8076 z
M 45.7207,-67.8076 L 45.7207,-81.8086 L 59.7197,-81.8086 L 59.7197,-67.8076 z
M 26.6709,-67.8076 L 26.6709,-81.8086 L 40.6699,-81.8086 L 40.6699,-67.8076 z
M 7.61914,-67.8076 L 7.61914,-81.8086 L 21.6201,-81.8086 L 21.6201,-67.8076 z
M 10.002,-48.7578 L 10.002,-62.7578 L 24.001,-62.7578 L 24.001,-48.7578 z
M 31.4326,-48.7578 L 31.4326,-62.7578 L 45.4326,-62.7578 L 45.4326,-48.7578 z
M 50.4834,-48.7578 L 50.4834,-62.7578 L 64.4824,-62.7578 L 64.4824,-48.7578 z
M 69.5332,-48.7578 L 69.5332,-62.7578 L 83.5322,-62.7578 L 83.5322,-48.7578 z
M 88.583,-48.7578 L 88.583,-62.7578 L 102.582,-62.7578 L 102.582,-48.7578 z
M 107.633,-48.7578 L 107.633,-62.7578 L 121.632,-62.7578 L 121.632,-48.7578 z
M 126.683,-48.7578 L 126.683,-62.7578 L 140.682,-62.7578 L 140.682,-48.7578 z
M 145.733,-48.7578 L 145.733,-62.7578 L 159.732,-62.7578 L 159.732,-48.7578 z
M 183.833,-48.7578 L 183.833,-62.7578 L 197.832,-62.7578 L 197.832,-48.7578 z
M 210.027,-48.7578 L 210.027,-62.7578 L 224.026,-62.7578 L 224.026,-48.7578 z
M 164.783,-48.7578 L 164.783,-62.7578 L 178.782,-62.7578 L 178.782,-48.7578 z
M 214.788,-29.708 L 214.788,-43.707 L 228.789,-43.707 L 228.789,-29.708 z
M 193.358,-29.708 L 193.358,-43.707 L 207.357,-43.707 L 207.357,-29.708 z
M 174.308,-29.708 L 174.308,-43.707 L 188.307,-43.707 L 188.307,-29.708 z
M 155.258,-29.708 L 155.258,-43.707 L 169.257,-43.707 L 169.257,-29.708 z
M 136.208,-29.708 L 136.208,-43.707 L 150.207,-43.707 L 150.207,-29.708 z
M 98.1084,-29.708 L 98.1084,-43.707 L 112.107,-43.707 L 112.107,-29.708 z
M 79.0586,-29.708 L 79.0586,-43.707 L 93.0576,-43.707 L 93.0576,-29.708 z
M 60.0078,-29.708 L 60.0078,-43.707 L 74.0078,-43.707 L 74.0078,-29.708 z
M 40.958,-29.708 L 40.958,-43.707 L 54.957,-43.707 L 54.957,-29.708 z
M 14.7627,-29.708 L 14.7627,-43.707 L 28.7637,-43.707 L 28.7637,-29.708 z
M 117.158,-29.708 L 117.158,-43.707 L 131.157,-43.707 L 131.157,-29.708 z
M 176.688,-10.6572 L 176.688,-24.6572 L 190.689,-24.6572 L 190.689,-10.6572 z
M 143.352,-10.6572 L 143.352,-24.6572 L 157.351,-24.6572 L 157.351,-10.6572 z
M 81.4385,-10.6572 L 81.4385,-24.6572 L 95.4385,-24.6572 L 95.4385,-10.6572 z
M 48.1016,-10.6572 L 48.1016,-24.6572 L 62.1016,-24.6572 L 62.1016,-10.6572 z
M 74.8877,-9.90625 L 74.8877,-24.1074 L 78.1885,-24.1074 L 78.1885,-9.90625 z
M 98.6885,-9.90625 L 98.6885,-24.1074 L 101.989,-24.1074 L 101.989,-9.90625 z
M 136.802,-9.90625 L 136.802,-24.1074 L 140.101,-24.1074 L 140.101,-9.90625 z
M 160.602,-9.90625 L 160.602,-24.1074 L 163.901,-24.1074 L 163.901,-9.90625 z
M 3.63086,-2.70508 L 3.21387,-2.91895 L 2.88184,-3.25098 L 2.66797,-3.66797 L 2.59473,-4.13184 L 2.66797,-4.5957
 L 2.88184,-5.01367 L 3.21387,-5.3457 L 3.63086,-5.55762 L 4.0957,-5.63086 L 4.55859,-5.55762 L 4.97656,-5.3457
 L 5.30859,-5.01367 L 5.52148,-4.5957 L 5.59473,-4.13184 L 5.52148,-3.66797 L 5.30859,-3.25098 L 4.97656,-2.91895
 L 4.55859,-2.70508 L 4.0957,-2.63086 z
M 80.498,-2.70508 L 80.0811,-2.91895 L 79.749,-3.25098 L 79.5352,-3.66797 L 79.4619,-4.13184 L 79.5352,-4.5957
 L 79.749,-5.01367 L 80.0811,-5.3457 L 80.498,-5.55762 L 80.9629,-5.63086 L 81.4258,-5.55762 L 81.8428,-5.3457
 L 82.1758,-5.01367 L 82.3887,-4.5957 L 82.4619,-4.13184 L 82.3887,-3.66797 L 82.1758,-3.25098 L 81.8428,-2.91895
 L 81.4258,-2.70508 L 80.9629,-2.63086 z
M 157.365,-2.70508 L 156.948,-2.91895 L 156.615,-3.25098 L 156.402,-3.66797 L 156.33,-4.13184 L 156.402,-4.5957
 L 156.615,-5.01367 L 156.948,-5.3457 L 157.365,-5.55762 L 157.83,-5.63086 L 158.292,-5.55762 L 158.71,-5.3457
 L 159.042,-5.01367 L 159.256,-4.5957 L 159.33,-4.13184 L 159.256,-3.66797 L 159.042,-3.25098 L 158.71,-2.91895
 L 158.292,-2.70508 L 157.83,-2.63086 z
M 234.232,-2.70508 L 233.814,-2.91895 L 233.482,-3.25098 L 233.27,-3.66797 L 233.197,-4.13184 L 233.27,-4.5957
 L 233.482,-5.01367 L 233.814,-5.3457 L 234.232,-5.55762 L 234.696,-5.63086 L 235.16,-5.55762 L 235.577,-5.3457
 L 235.909,-5.01367 L 236.123,-4.5957 L 236.197,-4.13184 L 236.123,-3.66797 L 235.909,-3.25098 L 235.577,-2.91895
 L 235.16,-2.70508 L 234.696,-2.63086 z
" stroke="black" fill="lightgray" stroke-width="0.5"/>
</svg>
