<?xml version="1.0"?>
<!-- Generated by SVGo -->
<svg width="296.227mm" height="121.252mm"
     viewBox="0.000 0.000 296.227 121.252"
     xmlns="http://www.w3.org/2000/svg" 
     xmlns:xlink="http://www.w3.org/1999/xlink">
<polygon points="288.227,5.001 288.462,5.010 288.696,5.037 288.927,5.083 289.154,5.147 289.375,5.229 289.588,5.327 289.794,5.443 289.990,5.573 290.175,5.719 290.348,5.879 290.508,6.052 290.654,6.237 290.784,6.433 290.900,6.639 290.998,6.852 291.080,7.073 291.144,7.300 291.190,7.531 291.217,7.765 291.227,8.001 291.227,113.251 291.217,113.487 291.190,113.721 291.144,113.952 291.080,114.179 290.998,114.400 290.900,114.613 290.784,114.819 290.654,115.015 290.508,115.200 290.348,115.373 290.175,115.533 289.990,115.679 289.794,115.809 289.588,115.925 289.375,116.023 289.154,116.105 288.927,116.169 288.696,116.215 288.462,116.242 288.227,116.252 8.001,116.251 7.765,116.242 7.531,116.215 7.300,116.169 7.073,116.105 6.852,116.023 6.639,115.925 6.433,115.809 6.237,115.679 6.052,115.533 5.879,115.373 5.719,115.200 5.573,115.015 5.443,114.819 5.327,114.613 5.229,114.400 5.147,114.179 5.083,113.952 5.037,113.721 5.010,113.487 5.000,113.251 5.001,8.001 5.010,7.765 5.037,7.531 5.083,7.300 5.147,7.073 5.229,6.852 5.327,6.639 5.443,6.433 5.573,6.237 5.719,6.052 5.879,5.879 6.052,5.719 6.237,5.573 6.433,5.443 6.639,5.327 6.852,5.229 7.073,5.147 7.300,5.083 7.531,5.037 7.765,5.010 8.001,5.000" style="fill:none;stroke-width:0.050000mm;stroke:black"/>
<polygon points="286.763,110.825 286.345,111.038 286.013,111.370 285.800,111.788 285.727,112.251 285.800,112.715 286.013,113.133 286.345,113.465 286.763,113.678 287.227,113.751 287.690,113.678 288.108,113.465 288.440,113.133 288.653,112.715 288.727,112.251 288.653,111.788 288.440,111.370 288.108,111.038 287.690,110.825 287.227,110.751" style="fill:none;stroke-width:0.050000mm;stroke:black"/>
<polygon points="194.021,110.825 193.603,111.038 193.271,111.370 193.058,111.788 192.985,112.251 193.058,112.715 193.271,113.133 193.603,113.465 194.021,113.678 194.485,113.751 194.948,113.678 195.366,113.465 195.698,113.133 195.911,112.715 195.985,112.251 195.911,111.788 195.698,111.370 195.366,111.038 194.948,110.825 194.485,110.751" style="fill:none;stroke-width:0.050000mm;stroke:black"/>
<polygon points="101.279,110.825 100.861,111.038 100.529,111.370 100.316,111.788 100.243,112.251 100.316,112.715 100.529,113.133 100.861,113.465 101.279,113.678 101.743,113.751 102.206,113.678 102.624,113.465 102.956,113.133 103.169,112.715 103.243,112.251 103.169,111.788 102.956,111.370 102.624,111.038 102.206,110.825 101.743,110.751" style="fill:none;stroke-width:0.050000mm;stroke:black"/>
<polygon points="8.537,110.825 8.119,111.038 7.787,111.370 7.574,111.788 7.500,112.251 7.574,112.715 7.787,113.133 8.119,113.465 8.537,113.678 9.001,113.751 9.464,113.678 9.882,113.465 10.214,113.133 10.427,112.715 10.501,112.251 10.427,111.788 10.214,111.370 9.882,111.038 9.464,110.825 9.001,110.751" style="fill:none;stroke-width:0.050000mm;stroke:black"/>
<polygon points="286.763,7.574 286.345,7.787 286.013,8.119 285.800,8.537 285.727,9.001 285.800,9.464 286.013,9.882 286.345,10.214 286.763,10.427 287.227,10.501 287.690,10.427 288.108,10.214 288.440,9.882 288.653,9.464 288.727,9.001 288.653,8.537 288.440,8.119 288.108,7.787 287.690,7.574 287.227,7.501" style="fill:none;stroke-width:0.050000mm;stroke:black"/>
<polygon points="194.021,7.574 193.603,7.787 193.271,8.119 193.058,8.537 192.985,9.001 193.058,9.464 193.271,9.882 193.603,10.214 194.021,10.427 194.485,10.501 194.948,10.427 195.366,10.214 195.698,9.882 195.911,9.464 195.985,9.001 195.911,8.537 195.698,8.119 195.366,7.787 194.948,7.574 194.485,7.501" style="fill:none;stroke-width:0.050000mm;stroke:black"/>
<polygon points="101.279,7.574 100.861,7.787 100.529,8.119 100.316,8.537 100.243,9.001 100.316,9.464 100.529,9.882 100.861,10.214 101.279,10.427 101.743,10.501 102.206,10.427 102.624,10.214 102.956,9.882 103.169,9.464 103.243,9.001 103.169,8.537 102.956,8.119 102.624,7.787 102.206,7.574 101.743,7.501" style="fill:none;stroke-width:0.050000mm;stroke:black"/>
<polygon points="8.537,7.574 8.119,7.787 7.787,8.119 7.574,8.537 7.500,9.001 7.574,9.464 7.787,9.882 8.119,10.214 8.537,10.427 9.001,10.501 9.464,10.427 9.882,10.214 10.214,9.882 10.427,9.464 10.501,9.001 10.427,8.537 10.214,8.119 9.882,7.787 9.464,7.574 9.001,7.501" style="fill:none;stroke-width:0.050000mm;stroke:black"/>
</svg>
