<?xml version="1.0" standalone="no"?>
<!DOCTYPE svg PUBLIC "-//W3C//DTD SVG 1.1//EN" "http://www.w3.org/Graphics/SVG/1.1/DTD/svg11.dtd">
<svg width="287mm" height="112mm" viewBox="0 -112 287 112" xmlns="http://www.w3.org/2000/svg" version="1.1">
<title>OpenSCAD Model</title>
<path d="
M 283.556,-0.141602 L 283.79,-0.167969 L 284.022,-0.214844 L 284.248,-0.27832 L 284.47,-0.359375 L 284.682,-0.458984
 L 284.889,-0.574219 L 285.084,-0.704102 L 285.269,-0.850586 L 285.443,-1.00977 L 285.603,-1.18359 L 285.749,-1.36816
 L 285.878,-1.56445 L 285.994,-1.77051 L 286.093,-1.9834 L 286.174,-2.20508 L 286.238,-2.43066 L 286.285,-2.66211
 L 286.311,-2.89648 L 286.322,-3.13184 L 286.322,-108.383 L 286.311,-108.619 L 286.285,-108.853 L 286.238,-109.083
 L 286.174,-109.31 L 286.093,-109.53 L 285.994,-109.744 L 285.878,-109.951 L 285.749,-110.147 L 285.603,-110.331
 L 285.443,-110.505 L 285.269,-110.665 L 285.084,-110.811 L 284.889,-110.94 L 284.682,-111.056 L 284.47,-111.154
 L 284.248,-111.236 L 284.022,-111.3 L 283.79,-111.347 L 283.556,-111.373 L 283.322,-111.383 L 3.09473,-111.383
 L 2.85938,-111.373 L 2.625,-111.347 L 2.39551,-111.3 L 2.16797,-111.236 L 1.94727,-111.154 L 1.7334,-111.056
 L 1.52734,-110.94 L 1.33105,-110.811 L 1.14648,-110.665 L 0.972656,-110.505 L 0.813477,-110.331 L 0.666992,-110.147
 L 0.537109,-109.951 L 0.421875,-109.744 L 0.324219,-109.53 L 0.241211,-109.31 L 0.177734,-109.083 L 0.130859,-108.853
 L 0.104492,-108.619 L 0.0947266,-108.383 L 0.0947266,-3.13184 L 0.104492,-2.89648 L 0.130859,-2.66211 L 0.177734,-2.43066
 L 0.241211,-2.20508 L 0.324219,-1.9834 L 0.421875,-1.77051 L 0.537109,-1.56445 L 0.666992,-1.36816 L 0.813477,-1.18359
 L 0.972656,-1.00977 L 1.14648,-0.850586 L 1.33105,-0.704102 L 1.52734,-0.574219 L 1.7334,-0.458984 L 1.94727,-0.359375
 L 2.16797,-0.27832 L 2.39551,-0.214844 L 2.625,-0.167969 L 2.85938,-0.141602 L 3.09473,-0.131836 L 283.322,-0.130859
 z
M 281.857,-105.956 L 281.439,-106.17 L 281.107,-106.502 L 280.894,-106.919 L 280.822,-107.382 L 280.894,-107.847
 L 281.107,-108.264 L 281.439,-108.596 L 281.857,-108.81 L 282.321,-108.883 L 282.785,-108.81 L 283.202,-108.596
 L 283.534,-108.264 L 283.748,-107.847 L 283.822,-107.382 L 283.748,-106.919 L 283.534,-106.502 L 283.202,-106.17
 L 282.785,-105.956 L 282.321,-105.883 z
M 189.115,-105.956 L 188.698,-106.17 L 188.365,-106.502 L 188.152,-106.919 L 188.08,-107.382 L 188.152,-107.847
 L 188.365,-108.264 L 188.698,-108.596 L 189.115,-108.81 L 189.58,-108.883 L 190.042,-108.81 L 190.46,-108.596
 L 190.792,-108.264 L 191.006,-107.847 L 191.08,-107.382 L 191.006,-106.919 L 190.792,-106.502 L 190.46,-106.17
 L 190.042,-105.956 L 189.58,-105.883 z
M 96.373,-105.956 L 95.9561,-106.17 L 95.624,-106.502 L 95.4102,-106.919 L 95.3369,-107.382 L 95.4102,-107.847
 L 95.624,-108.264 L 95.9561,-108.596 L 96.373,-108.81 L 96.8379,-108.883 L 97.3008,-108.81 L 97.7178,-108.596
 L 98.0508,-108.264 L 98.2637,-107.847 L 98.3369,-107.382 L 98.2637,-106.919 L 98.0508,-106.502 L 97.7178,-106.17
 L 97.3008,-105.956 L 96.8379,-105.883 z
M 3.63086,-105.956 L 3.21387,-106.17 L 2.88184,-106.502 L 2.66797,-106.919 L 2.59473,-107.382 L 2.66797,-107.847
 L 2.88184,-108.264 L 3.21387,-108.596 L 3.63086,-108.81 L 4.0957,-108.883 L 4.55859,-108.81 L 4.97656,-108.596
 L 5.30859,-108.264 L 5.52148,-107.847 L 5.59473,-107.382 L 5.52148,-106.919 L 5.30859,-106.502 L 4.97656,-106.17
 L 4.55859,-105.956 L 4.0957,-105.883 z
M 281.857,-2.70508 L 281.439,-2.91895 L 281.107,-3.25098 L 280.894,-3.66797 L 280.822,-4.13281 L 280.894,-4.5957
 L 281.107,-5.01367 L 281.439,-5.3457 L 281.857,-5.55762 L 282.321,-5.63184 L 282.785,-5.55762 L 283.202,-5.3457
 L 283.534,-5.01367 L 283.748,-4.5957 L 283.822,-4.13281 L 283.748,-3.66797 L 283.534,-3.25098 L 283.202,-2.91895
 L 282.785,-2.70508 L 282.321,-2.63184 z
M 189.115,-2.70508 L 188.698,-2.91895 L 188.365,-3.25098 L 188.152,-3.66797 L 188.08,-4.13281 L 188.152,-4.5957
 L 188.365,-5.01367 L 188.698,-5.3457 L 189.115,-5.55762 L 189.58,-5.63184 L 190.042,-5.55762 L 190.46,-5.3457
 L 190.792,-5.01367 L 191.006,-4.5957 L 191.08,-4.13281 L 191.006,-3.66797 L 190.792,-3.25098 L 190.46,-2.91895
 L 190.042,-2.70508 L 189.58,-2.63184 z
M 96.373,-2.70508 L 95.9561,-2.91895 L 95.624,-3.25098 L 95.4102,-3.66797 L 95.3369,-4.13281 L 95.4102,-4.5957
 L 95.624,-5.01367 L 95.9561,-5.3457 L 96.373,-5.55762 L 96.8379,-5.63184 L 97.3008,-5.55762 L 97.7178,-5.3457
 L 98.0508,-5.01367 L 98.2637,-4.5957 L 98.3369,-4.13281 L 98.2637,-3.66797 L 98.0508,-3.25098 L 97.7178,-2.91895
 L 97.3008,-2.70508 L 96.8379,-2.63184 z
M 3.63086,-2.70508 L 3.21387,-2.91895 L 2.88184,-3.25098 L 2.66797,-3.66797 L 2.59473,-4.13281 L 2.66797,-4.5957
 L 2.88184,-5.01367 L 3.21387,-5.3457 L 3.63086,-5.55762 L 4.0957,-5.63184 L 4.55859,-5.55762 L 4.97656,-5.3457
 L 5.30859,-5.01367 L 5.52148,-4.5957 L 5.59473,-4.13281 L 5.52148,-3.66797 L 5.30859,-3.25098 L 4.97656,-2.91895
 L 4.55859,-2.70508 L 4.0957,-2.63184 z
" stroke="black" fill="lightgray" stroke-width="0.5"/>
</svg>
