<?xml version="1.0" standalone="no"?>
<!DOCTYPE svg PUBLIC "-//W3C//DTD SVG 1.1//EN" "http://www.w3.org/Graphics/SVG/1.1/DTD/svg11.dtd">
<svg width="287mm" height="112mm" viewBox="0 -112 287 112" xmlns="http://www.w3.org/2000/svg" version="1.1">
<title>OpenSCAD Model</title>
<path d="
M 283.556,-0.141602 L 283.79,-0.167969 L 284.022,-0.214844 L 284.248,-0.27832 L 284.47,-0.359375 L 284.682,-0.458984
 L 284.889,-0.574219 L 285.084,-0.704102 L 285.269,-0.850586 L 285.443,-1.00977 L 285.603,-1.18359 L 285.749,-1.36816
 L 285.878,-1.56445 L 285.994,-1.77051 L 286.093,-1.9834 L 286.174,-2.20508 L 286.238,-2.43066 L 286.285,-2.66211
 L 286.311,-2.89648 L 286.322,-3.13184 L 286.322,-108.383 L 286.311,-108.619 L 286.285,-108.853 L 286.238,-109.083
 L 286.174,-109.31 L 286.093,-109.53 L 285.994,-109.744 L 285.878,-109.951 L 285.749,-110.147 L 285.603,-110.331
 L 285.443,-110.505 L 285.269,-110.665 L 285.084,-110.811 L 284.889,-110.94 L 284.682,-111.056 L 284.47,-111.154
 L 284.248,-111.236 L 284.022,-111.3 L 283.79,-111.347 L 283.556,-111.373 L 283.322,-111.383 L 3.09473,-111.383
 L 2.85938,-111.373 L 2.625,-111.347 L 2.39551,-111.3 L 2.16797,-111.236 L 1.94727,-111.154 L 1.7334,-111.056
 L 1.52734,-110.94 L 1.33105,-110.811 L 1.14648,-110.665 L 0.972656,-110.505 L 0.813477,-110.331 L 0.666992,-110.147
 L 0.537109,-109.951 L 0.421875,-109.744 L 0.324219,-109.53 L 0.241211,-109.31 L 0.177734,-109.083 L 0.130859,-108.853
 L 0.104492,-108.619 L 0.0947266,-108.383 L 0.0947266,-3.13184 L 0.104492,-2.89648 L 0.130859,-2.66211 L 0.177734,-2.43066
 L 0.241211,-2.20508 L 0.324219,-1.9834 L 0.421875,-1.77051 L 0.537109,-1.56445 L 0.666992,-1.36816 L 0.813477,-1.18359
 L 0.972656,-1.00977 L 1.14648,-0.850586 L 1.33105,-0.704102 L 1.52734,-0.574219 L 1.7334,-0.458984 L 1.94727,-0.359375
 L 2.16797,-0.27832 L 2.39551,-0.214844 L 2.625,-0.167969 L 2.85938,-0.141602 L 3.09473,-0.131836 L 283.322,-0.130859
 z
M 3.63086,-105.956 L 3.21387,-106.17 L 2.88184,-106.502 L 2.66797,-106.919 L 2.59473,-107.382 L 2.66797,-107.847
 L 2.88184,-108.264 L 3.21387,-108.596 L 3.63086,-108.81 L 4.0957,-108.883 L 4.55859,-108.81 L 4.97656,-108.596
 L 5.30859,-108.264 L 5.52148,-107.847 L 5.59473,-107.382 L 5.52148,-106.919 L 5.30859,-106.502 L 4.97656,-106.17
 L 4.55859,-105.956 L 4.0957,-105.883 z
M 281.857,-105.956 L 281.439,-106.17 L 281.107,-106.502 L 280.894,-106.919 L 280.822,-107.382 L 280.894,-107.847
 L 281.107,-108.264 L 281.439,-108.596 L 281.857,-108.81 L 282.321,-108.883 L 282.785,-108.81 L 283.202,-108.596
 L 283.534,-108.264 L 283.748,-107.847 L 283.822,-107.382 L 283.748,-106.919 L 283.534,-106.502 L 283.202,-106.17
 L 282.785,-105.956 L 282.321,-105.883 z
M 96.373,-105.956 L 95.9561,-106.17 L 95.624,-106.502 L 95.4102,-106.919 L 95.3369,-107.382 L 95.4102,-107.847
 L 95.624,-108.264 L 95.9561,-108.596 L 96.373,-108.81 L 96.8379,-108.883 L 97.3008,-108.81 L 97.7178,-108.596
 L 98.0508,-108.264 L 98.2637,-107.847 L 98.3369,-107.382 L 98.2637,-106.919 L 98.0508,-106.502 L 97.7178,-106.17
 L 97.3008,-105.956 L 96.8379,-105.883 z
M 189.115,-105.956 L 188.698,-106.17 L 188.365,-106.502 L 188.152,-106.919 L 188.08,-107.382 L 188.152,-107.847
 L 188.365,-108.264 L 188.698,-108.596 L 189.115,-108.81 L 189.58,-108.883 L 190.042,-108.81 L 190.46,-108.596
 L 190.792,-108.264 L 191.006,-107.847 L 191.08,-107.382 L 191.006,-106.919 L 190.792,-106.502 L 190.46,-106.17
 L 190.042,-105.956 L 189.58,-105.883 z
M 102.869,-86.8574 L 102.869,-100.858 L 116.87,-100.858 L 116.87,-86.8574 z
M 7.61914,-86.8574 L 7.61914,-100.858 L 21.6201,-100.858 L 21.6201,-86.8574 z
M 26.6709,-86.8574 L 26.6709,-100.858 L 40.6699,-100.858 L 40.6699,-86.8574 z
M 45.7207,-86.8574 L 45.7207,-100.858 L 59.7197,-100.858 L 59.7197,-86.8574 z
M 64.7705,-86.8574 L 64.7705,-100.858 L 78.7695,-100.858 L 78.7695,-86.8574 z
M 83.8203,-86.8574 L 83.8203,-100.858 L 97.8203,-100.858 L 97.8203,-86.8574 z
M 121.919,-86.8574 L 121.919,-100.858 L 135.92,-100.858 L 135.92,-86.8574 z
M 140.971,-86.8574 L 140.971,-100.858 L 154.97,-100.858 L 154.97,-86.8574 z
M 160.021,-86.8574 L 160.021,-100.858 L 174.02,-100.858 L 174.02,-86.8574 z
M 198.121,-86.8574 L 198.121,-100.858 L 212.12,-100.858 L 212.12,-86.8574 z
M 217.171,-86.8574 L 217.171,-100.858 L 231.17,-100.858 L 231.17,-86.8574 z
M 236.221,-86.8574 L 236.221,-100.858 L 250.22,-100.858 L 250.22,-86.8574 z
M 260.033,-86.8574 L 260.033,-100.858 L 274.032,-100.858 L 274.032,-86.8574 z
M 179.071,-86.8574 L 179.071,-100.858 L 193.07,-100.858 L 193.07,-86.8574 z
M 264.796,-67.8076 L 264.796,-81.8076 L 278.795,-81.8076 L 278.795,-67.8076 z
M 12.3828,-67.8076 L 12.3828,-81.8076 L 26.3828,-81.8076 L 26.3828,-67.8076 z
M 55.2461,-67.8076 L 55.2461,-81.8076 L 69.2451,-81.8076 L 69.2451,-67.8076 z
M 74.2959,-67.8076 L 74.2959,-81.8076 L 88.2949,-81.8076 L 88.2949,-67.8076 z
M 93.3457,-67.8076 L 93.3457,-81.8076 L 107.345,-81.8076 L 107.345,-67.8076 z
M 112.396,-67.8076 L 112.396,-81.8076 L 126.395,-81.8076 L 126.395,-67.8076 z
M 131.446,-67.8076 L 131.446,-81.8076 L 145.445,-81.8076 L 145.445,-67.8076 z
M 150.496,-67.8076 L 150.496,-81.8076 L 164.495,-81.8076 L 164.495,-67.8076 z
M 169.546,-67.8076 L 169.546,-81.8076 L 183.545,-81.8076 L 183.545,-67.8076 z
M 188.596,-67.8076 L 188.596,-81.8076 L 202.595,-81.8076 L 202.595,-67.8076 z
M 207.646,-67.8076 L 207.646,-81.8076 L 221.645,-81.8076 L 221.645,-67.8076 z
M 226.696,-67.8076 L 226.696,-81.8076 L 240.695,-81.8076 L 240.695,-67.8076 z
M 245.746,-67.8076 L 245.746,-81.8076 L 259.745,-81.8076 L 259.745,-67.8076 z
M 36.1953,-67.8076 L 36.1953,-81.8076 L 50.1953,-81.8076 L 50.1953,-67.8076 z
M 117.158,-48.7578 L 117.158,-62.7578 L 131.157,-62.7578 L 131.157,-48.7578 z
M 98.1084,-48.7578 L 98.1084,-62.7578 L 112.107,-62.7578 L 112.107,-48.7578 z
M 257.652,-48.7578 L 257.652,-62.7578 L 271.651,-62.7578 L 271.651,-48.7578 z
M 231.458,-48.7578 L 231.458,-62.7578 L 245.457,-62.7578 L 245.457,-48.7578 z
M 212.408,-48.7578 L 212.408,-62.7578 L 226.407,-62.7578 L 226.407,-48.7578 z
M 193.358,-48.7578 L 193.358,-62.7578 L 207.357,-62.7578 L 207.357,-48.7578 z
M 174.308,-48.7578 L 174.308,-62.7578 L 188.307,-62.7578 L 188.307,-48.7578 z
M 136.208,-48.7578 L 136.208,-62.7578 L 150.207,-62.7578 L 150.207,-48.7578 z
M 79.0586,-48.7578 L 79.0586,-62.7578 L 93.0576,-62.7578 L 93.0576,-48.7578 z
M 60.0078,-48.7578 L 60.0078,-62.7578 L 74.0078,-62.7578 L 74.0078,-48.7578 z
M 40.958,-48.7578 L 40.958,-62.7578 L 54.957,-62.7578 L 54.957,-48.7578 z
M 14.7627,-48.7578 L 14.7627,-62.7578 L 28.7637,-62.7578 L 28.7637,-48.7578 z
M 155.258,-48.7578 L 155.258,-62.7578 L 169.257,-62.7578 L 169.257,-48.7578 z
M 126.683,-29.708 L 126.683,-43.707 L 140.682,-43.707 L 140.682,-29.708 z
M 19.5264,-29.708 L 19.5264,-43.707 L 33.5264,-43.707 L 33.5264,-29.708 z
M 50.4834,-29.708 L 50.4834,-43.707 L 64.4824,-43.707 L 64.4824,-29.708 z
M 69.5332,-29.708 L 69.5332,-43.707 L 83.5322,-43.707 L 83.5322,-29.708 z
M 88.583,-29.708 L 88.583,-43.707 L 102.582,-43.707 L 102.582,-29.708 z
M 107.633,-29.708 L 107.633,-43.707 L 121.632,-43.707 L 121.632,-29.708 z
M 164.783,-29.708 L 164.783,-43.707 L 178.782,-43.707 L 178.782,-29.708 z
M 183.833,-29.708 L 183.833,-43.707 L 197.832,-43.707 L 197.832,-29.708 z
M 202.883,-29.708 L 202.883,-43.707 L 216.882,-43.707 L 216.882,-29.708 z
M 252.888,-29.708 L 252.888,-43.707 L 266.889,-43.707 L 266.889,-29.708 z
M 221.933,-29.708 L 221.933,-43.707 L 235.932,-43.707 L 235.932,-29.708 z
M 145.733,-29.708 L 145.733,-43.707 L 159.732,-43.707 L 159.732,-29.708 z
M 12.9766,-28.957 L 12.9766,-43.1572 L 16.2764,-43.1572 L 16.2764,-28.957 z
M 36.7773,-28.957 L 36.7773,-43.1572 L 40.0762,-43.1572 L 40.0762,-28.957 z
M 246.338,-28.957 L 246.338,-43.1572 L 249.639,-43.1572 L 249.639,-28.957 z
M 270.138,-28.957 L 270.138,-43.1572 L 273.439,-43.1572 L 273.439,-28.957 z
M 262.413,-10.6572 L 262.413,-24.6572 L 276.414,-24.6572 L 276.414,-10.6572 z
M 10.002,-10.6572 L 10.002,-24.6572 L 24.001,-24.6572 L 24.001,-10.6572 z
M 57.627,-10.6572 L 57.627,-24.6572 L 71.626,-24.6572 L 71.626,-10.6572 z
M 136.303,-10.6572 L 136.303,-24.6572 L 150.303,-24.6572 L 150.303,-10.6572 z
M 214.788,-10.6572 L 214.788,-24.6572 L 228.789,-24.6572 L 228.789,-10.6572 z
M 238.602,-10.6572 L 238.602,-24.6572 L 252.6,-24.6572 L 252.6,-10.6572 z
M 33.8125,-10.6572 L 33.8125,-24.6572 L 47.8135,-24.6572 L 47.8135,-10.6572 z
M 91.6523,-9.90625 L 91.6523,-24.1084 L 94.9521,-24.1084 L 94.9521,-9.90625 z
M 191.652,-9.90625 L 191.652,-24.1084 L 194.952,-24.1084 L 194.952,-9.90625 z
M 3.63086,-2.70508 L 3.21387,-2.91895 L 2.88184,-3.25098 L 2.66797,-3.66797 L 2.59473,-4.13281 L 2.66797,-4.5957
 L 2.88184,-5.01367 L 3.21387,-5.3457 L 3.63086,-5.55762 L 4.0957,-5.63184 L 4.55859,-5.55762 L 4.97656,-5.3457
 L 5.30859,-5.01367 L 5.52148,-4.5957 L 5.59473,-4.13281 L 5.52148,-3.66797 L 5.30859,-3.25098 L 4.97656,-2.91895
 L 4.55859,-2.70508 L 4.0957,-2.63184 z
M 96.373,-2.70508 L 95.9561,-2.91895 L 95.624,-3.25098 L 95.4102,-3.66797 L 95.3369,-4.13281 L 95.4102,-4.5957
 L 95.624,-5.01367 L 95.9561,-5.3457 L 96.373,-5.55762 L 96.8379,-5.63184 L 97.3008,-5.55762 L 97.7178,-5.3457
 L 98.0508,-5.01367 L 98.2637,-4.5957 L 98.3369,-4.13281 L 98.2637,-3.66797 L 98.0508,-3.25098 L 97.7178,-2.91895
 L 97.3008,-2.70508 L 96.8379,-2.63184 z
M 189.115,-2.70508 L 188.698,-2.91895 L 188.365,-3.25098 L 188.152,-3.66797 L 188.08,-4.13281 L 188.152,-4.5957
 L 188.365,-5.01367 L 188.698,-5.3457 L 189.115,-5.55762 L 189.58,-5.63184 L 190.042,-5.55762 L 190.46,-5.3457
 L 190.792,-5.01367 L 191.006,-4.5957 L 191.08,-4.13281 L 191.006,-3.66797 L 190.792,-3.25098 L 190.46,-2.91895
 L 190.042,-2.70508 L 189.58,-2.63184 z
M 281.857,-2.70508 L 281.439,-2.91895 L 281.107,-3.25098 L 280.894,-3.66797 L 280.822,-4.13281 L 280.894,-4.5957
 L 281.107,-5.01367 L 281.439,-5.3457 L 281.857,-5.55762 L 282.321,-5.63184 L 282.785,-5.55762 L 283.202,-5.3457
 L 283.534,-5.01367 L 283.748,-4.5957 L 283.822,-4.13281 L 283.748,-3.66797 L 283.534,-3.25098 L 283.202,-2.91895
 L 282.785,-2.70508 L 282.321,-2.63184 z
" stroke="black" fill="lightgray" stroke-width="0.5"/>
</svg>
